M48
;GenerationSoftware,Autodesk,EAGLE,9.3.0*%
;CreationDate,2019-10-14T04:39:26Z*%
FMAT,2
ICI,OFF
METRIC,TZ,000.000
T3C0.813
T2C1.016
T1C1.100
%
G90
M71
T1
X52070Y34210
X52070Y24210
T2
X5080Y25400
X5080Y15240
X5080Y17780
X5080Y20320
X5080Y22860
T3
X7620Y3810
X20320Y3810
X22860Y3810
X10160Y3810
X12700Y3810
X17780Y3810
X15240Y3810
X22860Y11430
X20320Y11430
X17780Y11430
X15240Y11430
X12700Y11430
X10160Y11430
X7620Y11430
X5080Y11430
X8890Y29210
X11430Y29210
X24130Y29210
X26670Y29210
X13970Y29210
X16510Y29210
X21590Y29210
X19050Y29210
X26670Y36830
X24130Y36830
X21590Y36830
X19050Y36830
X16510Y36830
X13970Y36830
X11430Y36830
X8890Y36830
X12700Y16510
X15240Y16510
X27940Y16510
X30480Y16510
X17780Y16510
X20320Y16510
X25400Y16510
X22860Y16510
X30480Y24130
X27940Y24130
X25400Y24130
X22860Y24130
X20320Y24130
X17780Y24130
X15240Y24130
X12700Y24130
X39370Y27940
X39370Y30480
X36830Y15240
X31750Y27940
X39370Y33020
X39370Y35560
X31750Y33020
X31750Y35560
X40640Y10033
X40640Y5207
X35560Y20320
X31750Y30480
X35560Y24130
X40640Y24130
X39370Y15240
X30480Y8890
X33020Y8890
X30480Y3810
X33020Y3810
X5080Y3810
X40640Y20320
M30