G04 EAGLE Gerber RS-274X export*
G75*
%MOMM*%
%FSLAX34Y34*%
%LPD*%
%INTop Copper*%
%IPPOS*%
%AMOC8*
5,1,8,0,0,1.08239X$1,22.5*%
G01*
%ADD10P,1.429621X8X22.500000*%
%ADD11C,1.320800*%
%ADD12C,1.320800*%
%ADD13C,1.676400*%
%ADD14C,1.524000*%
%ADD15C,0.406400*%


D10*
X368300Y152400D03*
X393700Y152400D03*
X304800Y88900D03*
X330200Y88900D03*
X304800Y38100D03*
X330200Y38100D03*
D11*
X50800Y31496D02*
X50800Y44704D01*
X76200Y44704D02*
X76200Y31496D01*
X203200Y31496D02*
X203200Y44704D01*
X228600Y44704D02*
X228600Y31496D01*
X101600Y31496D02*
X101600Y44704D01*
X127000Y44704D02*
X127000Y31496D01*
X177800Y31496D02*
X177800Y44704D01*
X152400Y44704D02*
X152400Y31496D01*
X228600Y107696D02*
X228600Y120904D01*
X203200Y120904D02*
X203200Y107696D01*
X177800Y107696D02*
X177800Y120904D01*
X152400Y120904D02*
X152400Y107696D01*
X127000Y107696D02*
X127000Y120904D01*
X101600Y120904D02*
X101600Y107696D01*
X76200Y107696D02*
X76200Y120904D01*
X50800Y120904D02*
X50800Y107696D01*
X88900Y285496D02*
X88900Y298704D01*
X114300Y298704D02*
X114300Y285496D01*
X241300Y285496D02*
X241300Y298704D01*
X266700Y298704D02*
X266700Y285496D01*
X139700Y285496D02*
X139700Y298704D01*
X165100Y298704D02*
X165100Y285496D01*
X215900Y285496D02*
X215900Y298704D01*
X190500Y298704D02*
X190500Y285496D01*
X266700Y361696D02*
X266700Y374904D01*
X241300Y374904D02*
X241300Y361696D01*
X215900Y361696D02*
X215900Y374904D01*
X190500Y374904D02*
X190500Y361696D01*
X165100Y361696D02*
X165100Y374904D01*
X139700Y374904D02*
X139700Y361696D01*
X114300Y361696D02*
X114300Y374904D01*
X88900Y374904D02*
X88900Y361696D01*
X127000Y171704D02*
X127000Y158496D01*
X152400Y158496D02*
X152400Y171704D01*
X279400Y171704D02*
X279400Y158496D01*
X304800Y158496D02*
X304800Y171704D01*
X177800Y171704D02*
X177800Y158496D01*
X203200Y158496D02*
X203200Y171704D01*
X254000Y171704D02*
X254000Y158496D01*
X228600Y158496D02*
X228600Y171704D01*
X304800Y234696D02*
X304800Y247904D01*
X279400Y247904D02*
X279400Y234696D01*
X254000Y234696D02*
X254000Y247904D01*
X228600Y247904D02*
X228600Y234696D01*
X203200Y234696D02*
X203200Y247904D01*
X177800Y247904D02*
X177800Y234696D01*
X152400Y234696D02*
X152400Y247904D01*
X127000Y247904D02*
X127000Y234696D01*
D12*
X393700Y279400D03*
X393700Y304800D03*
X317500Y304800D03*
X317500Y279400D03*
X393700Y330200D03*
X393700Y355600D03*
X317500Y330200D03*
X317500Y355600D03*
X406400Y100330D03*
X406400Y52070D03*
D10*
X355600Y203200D03*
X406400Y203200D03*
X355600Y241300D03*
X406400Y241300D03*
D13*
X520700Y342100D03*
X520700Y242100D03*
D14*
X58420Y152400D02*
X43180Y152400D01*
X43180Y177800D02*
X58420Y177800D01*
X58420Y203200D02*
X43180Y203200D01*
X43180Y228600D02*
X58420Y228600D01*
X58420Y254000D02*
X43180Y254000D01*
D15*
X228600Y38100D02*
X266700Y76200D01*
X266700Y127000D01*
X304800Y165100D01*
X292100Y266700D02*
X266700Y292100D01*
X292100Y266700D02*
X317500Y266700D01*
X330200Y254000D01*
X330200Y190500D01*
X304800Y165100D01*
X101600Y165100D02*
X50800Y114300D01*
X101600Y165100D02*
X127000Y165100D01*
X88900Y355600D02*
X88900Y368300D01*
X88900Y355600D02*
X76200Y342900D01*
X76200Y190500D01*
X101600Y165100D01*
X316230Y100330D02*
X406400Y100330D01*
X316230Y100330D02*
X311150Y95250D01*
X304800Y88900D01*
X311150Y95250D02*
X317500Y88900D01*
X215900Y127000D02*
X177800Y165100D01*
X215900Y127000D02*
X215900Y25400D01*
X228600Y12700D01*
X304800Y12700D01*
X317500Y25400D01*
X317500Y88900D01*
X406400Y52070D02*
X431800Y77470D01*
X431800Y114300D01*
X406400Y114300D01*
X368300Y152400D01*
X152400Y165100D02*
X101600Y114300D01*
X406400Y241300D02*
X431800Y215900D01*
X431800Y190500D01*
X406400Y165100D01*
X381000Y165100D01*
X368300Y152400D01*
X292100Y50800D02*
X304800Y38100D01*
X292100Y50800D02*
X292100Y114300D01*
X355600Y177800D01*
X393700Y177800D01*
X406400Y190500D01*
X406400Y203200D01*
X381000Y317500D02*
X393700Y330200D01*
X381000Y317500D02*
X381000Y228600D01*
X406400Y203200D01*
X330200Y88900D02*
X330200Y38100D01*
X393700Y152400D02*
X431800Y152400D01*
X520700Y241300D02*
X520700Y242100D01*
X520700Y241300D02*
X431800Y152400D01*
X76200Y114300D02*
X76200Y101600D01*
X63500Y88900D01*
X25400Y88900D01*
X12700Y101600D01*
X12700Y215900D01*
X50800Y254000D01*
X50800Y368300D01*
X76200Y393700D01*
X139700Y393700D01*
X165100Y368300D01*
X483400Y304800D02*
X520700Y342100D01*
X483400Y304800D02*
X444500Y304800D01*
X393700Y304800D01*
X317500Y330200D02*
X304800Y342900D01*
X304800Y368300D01*
X317500Y381000D01*
X406400Y381000D01*
X444500Y342900D01*
X444500Y304800D01*
X139700Y355600D02*
X139700Y368300D01*
X139700Y355600D02*
X101600Y317500D01*
X101600Y228600D01*
X114300Y215900D01*
X139700Y215900D01*
X165100Y190500D01*
X165100Y63500D01*
X152400Y50800D01*
X152400Y38100D01*
X114300Y292100D02*
X139700Y317500D01*
X330200Y317500D01*
X342900Y304800D01*
X342900Y215900D01*
X355600Y203200D01*
X114300Y368300D02*
X88900Y342900D01*
X88900Y292100D01*
M02*
