G04 EAGLE Gerber RS-274X export*
G75*
%MOMM*%
%FSLAX34Y34*%
%LPD*%
%INSilkscreen Top*%
%IPPOS*%
%AMOC8*
5,1,8,0,0,1.08239X$1,22.5*%
G01*
%ADD10C,0.152400*%
%ADD11C,0.304800*%
%ADD12C,0.127000*%
%ADD13C,0.812800*%
%ADD14C,0.101600*%
%ADD15C,0.203200*%
%ADD16R,1.600000X1.175000*%


D10*
X359410Y146050D02*
X359410Y158750D01*
X359412Y158890D01*
X359418Y159030D01*
X359427Y159170D01*
X359441Y159309D01*
X359458Y159448D01*
X359479Y159586D01*
X359504Y159724D01*
X359533Y159861D01*
X359565Y159997D01*
X359602Y160132D01*
X359642Y160266D01*
X359685Y160399D01*
X359733Y160531D01*
X359783Y160662D01*
X359838Y160791D01*
X359896Y160918D01*
X359957Y161044D01*
X360022Y161168D01*
X360091Y161290D01*
X360162Y161410D01*
X360237Y161528D01*
X360315Y161645D01*
X360397Y161759D01*
X360481Y161870D01*
X360569Y161979D01*
X360659Y162086D01*
X360753Y162191D01*
X360849Y162292D01*
X360948Y162391D01*
X361049Y162487D01*
X361154Y162581D01*
X361261Y162671D01*
X361370Y162759D01*
X361481Y162843D01*
X361595Y162925D01*
X361712Y163003D01*
X361830Y163078D01*
X361950Y163149D01*
X362072Y163218D01*
X362196Y163283D01*
X362322Y163344D01*
X362449Y163402D01*
X362578Y163457D01*
X362709Y163507D01*
X362841Y163555D01*
X362974Y163598D01*
X363108Y163638D01*
X363243Y163675D01*
X363379Y163707D01*
X363516Y163736D01*
X363654Y163761D01*
X363792Y163782D01*
X363931Y163799D01*
X364070Y163813D01*
X364210Y163822D01*
X364350Y163828D01*
X364490Y163830D01*
X359410Y146050D02*
X359412Y145910D01*
X359418Y145770D01*
X359427Y145630D01*
X359441Y145491D01*
X359458Y145352D01*
X359479Y145214D01*
X359504Y145076D01*
X359533Y144939D01*
X359565Y144803D01*
X359602Y144668D01*
X359642Y144534D01*
X359685Y144401D01*
X359733Y144269D01*
X359783Y144138D01*
X359838Y144009D01*
X359896Y143882D01*
X359957Y143756D01*
X360022Y143632D01*
X360091Y143510D01*
X360162Y143390D01*
X360237Y143272D01*
X360315Y143155D01*
X360397Y143041D01*
X360481Y142930D01*
X360569Y142821D01*
X360659Y142714D01*
X360753Y142609D01*
X360849Y142508D01*
X360948Y142409D01*
X361049Y142313D01*
X361154Y142219D01*
X361261Y142129D01*
X361370Y142041D01*
X361481Y141957D01*
X361595Y141875D01*
X361712Y141797D01*
X361830Y141722D01*
X361950Y141651D01*
X362072Y141582D01*
X362196Y141517D01*
X362322Y141456D01*
X362449Y141398D01*
X362578Y141343D01*
X362709Y141293D01*
X362841Y141245D01*
X362974Y141202D01*
X363108Y141162D01*
X363243Y141125D01*
X363379Y141093D01*
X363516Y141064D01*
X363654Y141039D01*
X363792Y141018D01*
X363931Y141001D01*
X364070Y140987D01*
X364210Y140978D01*
X364350Y140972D01*
X364490Y140970D01*
X364490Y163830D02*
X397510Y163830D01*
X402590Y158750D02*
X402590Y146050D01*
X397510Y140970D02*
X364490Y140970D01*
X397510Y163830D02*
X397650Y163828D01*
X397790Y163822D01*
X397930Y163813D01*
X398069Y163799D01*
X398208Y163782D01*
X398346Y163761D01*
X398484Y163736D01*
X398621Y163707D01*
X398757Y163675D01*
X398892Y163638D01*
X399026Y163598D01*
X399159Y163555D01*
X399291Y163507D01*
X399422Y163457D01*
X399551Y163402D01*
X399678Y163344D01*
X399804Y163283D01*
X399928Y163218D01*
X400050Y163149D01*
X400170Y163078D01*
X400288Y163003D01*
X400405Y162925D01*
X400519Y162843D01*
X400630Y162759D01*
X400739Y162671D01*
X400846Y162581D01*
X400951Y162487D01*
X401052Y162391D01*
X401151Y162292D01*
X401247Y162191D01*
X401341Y162086D01*
X401431Y161979D01*
X401519Y161870D01*
X401603Y161759D01*
X401685Y161645D01*
X401763Y161528D01*
X401838Y161410D01*
X401909Y161290D01*
X401978Y161168D01*
X402043Y161044D01*
X402104Y160918D01*
X402162Y160791D01*
X402217Y160662D01*
X402267Y160531D01*
X402315Y160399D01*
X402358Y160266D01*
X402398Y160132D01*
X402435Y159997D01*
X402467Y159861D01*
X402496Y159724D01*
X402521Y159586D01*
X402542Y159448D01*
X402559Y159309D01*
X402573Y159170D01*
X402582Y159030D01*
X402588Y158890D01*
X402590Y158750D01*
X402590Y146050D02*
X402588Y145910D01*
X402582Y145770D01*
X402573Y145630D01*
X402559Y145491D01*
X402542Y145352D01*
X402521Y145214D01*
X402496Y145076D01*
X402467Y144939D01*
X402435Y144803D01*
X402398Y144668D01*
X402358Y144534D01*
X402315Y144401D01*
X402267Y144269D01*
X402217Y144138D01*
X402162Y144009D01*
X402104Y143882D01*
X402043Y143756D01*
X401978Y143632D01*
X401909Y143510D01*
X401838Y143390D01*
X401763Y143272D01*
X401685Y143155D01*
X401603Y143041D01*
X401519Y142930D01*
X401431Y142821D01*
X401341Y142714D01*
X401247Y142609D01*
X401151Y142508D01*
X401052Y142409D01*
X400951Y142313D01*
X400846Y142219D01*
X400739Y142129D01*
X400630Y142041D01*
X400519Y141957D01*
X400405Y141875D01*
X400288Y141797D01*
X400170Y141722D01*
X400050Y141651D01*
X399928Y141582D01*
X399804Y141517D01*
X399678Y141456D01*
X399551Y141398D01*
X399422Y141343D01*
X399291Y141293D01*
X399159Y141245D01*
X399026Y141202D01*
X398892Y141162D01*
X398757Y141125D01*
X398621Y141093D01*
X398484Y141064D01*
X398346Y141039D01*
X398208Y141018D01*
X398069Y141001D01*
X397930Y140987D01*
X397790Y140978D01*
X397650Y140972D01*
X397510Y140970D01*
D11*
X377952Y144780D02*
X377952Y160020D01*
X384302Y160020D02*
X384302Y144780D01*
D12*
X368935Y167005D02*
X366395Y167005D01*
X366295Y167007D01*
X366196Y167013D01*
X366096Y167023D01*
X365998Y167036D01*
X365899Y167054D01*
X365802Y167075D01*
X365706Y167100D01*
X365610Y167129D01*
X365516Y167162D01*
X365423Y167198D01*
X365332Y167238D01*
X365242Y167282D01*
X365154Y167329D01*
X365068Y167379D01*
X364984Y167433D01*
X364902Y167490D01*
X364823Y167550D01*
X364745Y167614D01*
X364671Y167680D01*
X364599Y167749D01*
X364530Y167821D01*
X364464Y167895D01*
X364400Y167973D01*
X364340Y168052D01*
X364283Y168134D01*
X364229Y168218D01*
X364179Y168304D01*
X364132Y168392D01*
X364088Y168482D01*
X364048Y168573D01*
X364012Y168666D01*
X363979Y168760D01*
X363950Y168856D01*
X363925Y168952D01*
X363904Y169049D01*
X363886Y169148D01*
X363873Y169246D01*
X363863Y169346D01*
X363857Y169445D01*
X363855Y169545D01*
X363855Y175895D01*
X363857Y175995D01*
X363863Y176094D01*
X363873Y176194D01*
X363886Y176292D01*
X363904Y176391D01*
X363925Y176488D01*
X363950Y176584D01*
X363979Y176680D01*
X364012Y176774D01*
X364048Y176867D01*
X364088Y176958D01*
X364132Y177048D01*
X364179Y177136D01*
X364229Y177222D01*
X364283Y177306D01*
X364340Y177388D01*
X364400Y177467D01*
X364464Y177545D01*
X364530Y177619D01*
X364599Y177691D01*
X364671Y177760D01*
X364745Y177826D01*
X364823Y177890D01*
X364902Y177950D01*
X364984Y178007D01*
X365068Y178061D01*
X365154Y178111D01*
X365242Y178158D01*
X365332Y178202D01*
X365423Y178242D01*
X365516Y178278D01*
X365610Y178311D01*
X365706Y178340D01*
X365802Y178365D01*
X365899Y178386D01*
X365998Y178404D01*
X366096Y178417D01*
X366196Y178427D01*
X366295Y178433D01*
X366395Y178435D01*
X368935Y178435D01*
X373417Y175895D02*
X376592Y178435D01*
X376592Y167005D01*
X373417Y167005D02*
X379767Y167005D01*
D10*
X295910Y95250D02*
X295910Y82550D01*
X295910Y95250D02*
X295912Y95390D01*
X295918Y95530D01*
X295927Y95670D01*
X295941Y95809D01*
X295958Y95948D01*
X295979Y96086D01*
X296004Y96224D01*
X296033Y96361D01*
X296065Y96497D01*
X296102Y96632D01*
X296142Y96766D01*
X296185Y96899D01*
X296233Y97031D01*
X296283Y97162D01*
X296338Y97291D01*
X296396Y97418D01*
X296457Y97544D01*
X296522Y97668D01*
X296591Y97790D01*
X296662Y97910D01*
X296737Y98028D01*
X296815Y98145D01*
X296897Y98259D01*
X296981Y98370D01*
X297069Y98479D01*
X297159Y98586D01*
X297253Y98691D01*
X297349Y98792D01*
X297448Y98891D01*
X297549Y98987D01*
X297654Y99081D01*
X297761Y99171D01*
X297870Y99259D01*
X297981Y99343D01*
X298095Y99425D01*
X298212Y99503D01*
X298330Y99578D01*
X298450Y99649D01*
X298572Y99718D01*
X298696Y99783D01*
X298822Y99844D01*
X298949Y99902D01*
X299078Y99957D01*
X299209Y100007D01*
X299341Y100055D01*
X299474Y100098D01*
X299608Y100138D01*
X299743Y100175D01*
X299879Y100207D01*
X300016Y100236D01*
X300154Y100261D01*
X300292Y100282D01*
X300431Y100299D01*
X300570Y100313D01*
X300710Y100322D01*
X300850Y100328D01*
X300990Y100330D01*
X295910Y82550D02*
X295912Y82410D01*
X295918Y82270D01*
X295927Y82130D01*
X295941Y81991D01*
X295958Y81852D01*
X295979Y81714D01*
X296004Y81576D01*
X296033Y81439D01*
X296065Y81303D01*
X296102Y81168D01*
X296142Y81034D01*
X296185Y80901D01*
X296233Y80769D01*
X296283Y80638D01*
X296338Y80509D01*
X296396Y80382D01*
X296457Y80256D01*
X296522Y80132D01*
X296591Y80010D01*
X296662Y79890D01*
X296737Y79772D01*
X296815Y79655D01*
X296897Y79541D01*
X296981Y79430D01*
X297069Y79321D01*
X297159Y79214D01*
X297253Y79109D01*
X297349Y79008D01*
X297448Y78909D01*
X297549Y78813D01*
X297654Y78719D01*
X297761Y78629D01*
X297870Y78541D01*
X297981Y78457D01*
X298095Y78375D01*
X298212Y78297D01*
X298330Y78222D01*
X298450Y78151D01*
X298572Y78082D01*
X298696Y78017D01*
X298822Y77956D01*
X298949Y77898D01*
X299078Y77843D01*
X299209Y77793D01*
X299341Y77745D01*
X299474Y77702D01*
X299608Y77662D01*
X299743Y77625D01*
X299879Y77593D01*
X300016Y77564D01*
X300154Y77539D01*
X300292Y77518D01*
X300431Y77501D01*
X300570Y77487D01*
X300710Y77478D01*
X300850Y77472D01*
X300990Y77470D01*
X300990Y100330D02*
X334010Y100330D01*
X339090Y95250D02*
X339090Y82550D01*
X334010Y77470D02*
X300990Y77470D01*
X334010Y100330D02*
X334150Y100328D01*
X334290Y100322D01*
X334430Y100313D01*
X334569Y100299D01*
X334708Y100282D01*
X334846Y100261D01*
X334984Y100236D01*
X335121Y100207D01*
X335257Y100175D01*
X335392Y100138D01*
X335526Y100098D01*
X335659Y100055D01*
X335791Y100007D01*
X335922Y99957D01*
X336051Y99902D01*
X336178Y99844D01*
X336304Y99783D01*
X336428Y99718D01*
X336550Y99649D01*
X336670Y99578D01*
X336788Y99503D01*
X336905Y99425D01*
X337019Y99343D01*
X337130Y99259D01*
X337239Y99171D01*
X337346Y99081D01*
X337451Y98987D01*
X337552Y98891D01*
X337651Y98792D01*
X337747Y98691D01*
X337841Y98586D01*
X337931Y98479D01*
X338019Y98370D01*
X338103Y98259D01*
X338185Y98145D01*
X338263Y98028D01*
X338338Y97910D01*
X338409Y97790D01*
X338478Y97668D01*
X338543Y97544D01*
X338604Y97418D01*
X338662Y97291D01*
X338717Y97162D01*
X338767Y97031D01*
X338815Y96899D01*
X338858Y96766D01*
X338898Y96632D01*
X338935Y96497D01*
X338967Y96361D01*
X338996Y96224D01*
X339021Y96086D01*
X339042Y95948D01*
X339059Y95809D01*
X339073Y95670D01*
X339082Y95530D01*
X339088Y95390D01*
X339090Y95250D01*
X339090Y82550D02*
X339088Y82410D01*
X339082Y82270D01*
X339073Y82130D01*
X339059Y81991D01*
X339042Y81852D01*
X339021Y81714D01*
X338996Y81576D01*
X338967Y81439D01*
X338935Y81303D01*
X338898Y81168D01*
X338858Y81034D01*
X338815Y80901D01*
X338767Y80769D01*
X338717Y80638D01*
X338662Y80509D01*
X338604Y80382D01*
X338543Y80256D01*
X338478Y80132D01*
X338409Y80010D01*
X338338Y79890D01*
X338263Y79772D01*
X338185Y79655D01*
X338103Y79541D01*
X338019Y79430D01*
X337931Y79321D01*
X337841Y79214D01*
X337747Y79109D01*
X337651Y79008D01*
X337552Y78909D01*
X337451Y78813D01*
X337346Y78719D01*
X337239Y78629D01*
X337130Y78541D01*
X337019Y78457D01*
X336905Y78375D01*
X336788Y78297D01*
X336670Y78222D01*
X336550Y78151D01*
X336428Y78082D01*
X336304Y78017D01*
X336178Y77956D01*
X336051Y77898D01*
X335922Y77843D01*
X335791Y77793D01*
X335659Y77745D01*
X335526Y77702D01*
X335392Y77662D01*
X335257Y77625D01*
X335121Y77593D01*
X334984Y77564D01*
X334846Y77539D01*
X334708Y77518D01*
X334569Y77501D01*
X334430Y77487D01*
X334290Y77478D01*
X334150Y77472D01*
X334010Y77470D01*
D11*
X314452Y81280D02*
X314452Y96520D01*
X320802Y96520D02*
X320802Y81280D01*
D12*
X305435Y103505D02*
X302895Y103505D01*
X302795Y103507D01*
X302696Y103513D01*
X302596Y103523D01*
X302498Y103536D01*
X302399Y103554D01*
X302302Y103575D01*
X302206Y103600D01*
X302110Y103629D01*
X302016Y103662D01*
X301923Y103698D01*
X301832Y103738D01*
X301742Y103782D01*
X301654Y103829D01*
X301568Y103879D01*
X301484Y103933D01*
X301402Y103990D01*
X301323Y104050D01*
X301245Y104114D01*
X301171Y104180D01*
X301099Y104249D01*
X301030Y104321D01*
X300964Y104395D01*
X300900Y104473D01*
X300840Y104552D01*
X300783Y104634D01*
X300729Y104718D01*
X300679Y104804D01*
X300632Y104892D01*
X300588Y104982D01*
X300548Y105073D01*
X300512Y105166D01*
X300479Y105260D01*
X300450Y105356D01*
X300425Y105452D01*
X300404Y105549D01*
X300386Y105648D01*
X300373Y105746D01*
X300363Y105846D01*
X300357Y105945D01*
X300355Y106045D01*
X300355Y112395D01*
X300357Y112495D01*
X300363Y112594D01*
X300373Y112694D01*
X300386Y112792D01*
X300404Y112891D01*
X300425Y112988D01*
X300450Y113084D01*
X300479Y113180D01*
X300512Y113274D01*
X300548Y113367D01*
X300588Y113458D01*
X300632Y113548D01*
X300679Y113636D01*
X300729Y113722D01*
X300783Y113806D01*
X300840Y113888D01*
X300900Y113967D01*
X300964Y114045D01*
X301030Y114119D01*
X301099Y114191D01*
X301171Y114260D01*
X301245Y114326D01*
X301323Y114390D01*
X301402Y114450D01*
X301484Y114507D01*
X301568Y114561D01*
X301654Y114611D01*
X301742Y114658D01*
X301832Y114702D01*
X301923Y114742D01*
X302016Y114778D01*
X302110Y114811D01*
X302206Y114840D01*
X302302Y114865D01*
X302399Y114886D01*
X302498Y114904D01*
X302596Y114917D01*
X302696Y114927D01*
X302795Y114933D01*
X302895Y114935D01*
X305435Y114935D01*
X313410Y114936D02*
X313514Y114934D01*
X313619Y114928D01*
X313723Y114919D01*
X313826Y114906D01*
X313929Y114888D01*
X314031Y114868D01*
X314133Y114843D01*
X314233Y114815D01*
X314333Y114783D01*
X314431Y114747D01*
X314528Y114708D01*
X314623Y114666D01*
X314717Y114620D01*
X314809Y114570D01*
X314899Y114518D01*
X314987Y114462D01*
X315073Y114402D01*
X315157Y114340D01*
X315238Y114275D01*
X315317Y114207D01*
X315394Y114135D01*
X315467Y114062D01*
X315539Y113985D01*
X315607Y113906D01*
X315672Y113825D01*
X315734Y113741D01*
X315794Y113655D01*
X315850Y113567D01*
X315902Y113477D01*
X315952Y113385D01*
X315998Y113291D01*
X316040Y113196D01*
X316079Y113099D01*
X316115Y113001D01*
X316147Y112901D01*
X316175Y112801D01*
X316200Y112699D01*
X316220Y112597D01*
X316238Y112494D01*
X316251Y112391D01*
X316260Y112287D01*
X316266Y112182D01*
X316268Y112078D01*
X313410Y114935D02*
X313292Y114933D01*
X313173Y114927D01*
X313055Y114918D01*
X312938Y114905D01*
X312821Y114887D01*
X312704Y114867D01*
X312588Y114842D01*
X312473Y114814D01*
X312360Y114781D01*
X312247Y114746D01*
X312135Y114706D01*
X312025Y114664D01*
X311916Y114617D01*
X311808Y114567D01*
X311703Y114514D01*
X311599Y114457D01*
X311497Y114397D01*
X311397Y114334D01*
X311299Y114267D01*
X311203Y114198D01*
X311110Y114125D01*
X311019Y114049D01*
X310930Y113971D01*
X310844Y113889D01*
X310761Y113805D01*
X310680Y113719D01*
X310603Y113629D01*
X310528Y113538D01*
X310456Y113444D01*
X310387Y113347D01*
X310322Y113249D01*
X310259Y113148D01*
X310200Y113045D01*
X310144Y112941D01*
X310092Y112835D01*
X310043Y112727D01*
X309998Y112618D01*
X309956Y112507D01*
X309918Y112395D01*
X315315Y109856D02*
X315391Y109931D01*
X315466Y110010D01*
X315537Y110091D01*
X315606Y110175D01*
X315671Y110261D01*
X315733Y110349D01*
X315793Y110439D01*
X315849Y110531D01*
X315902Y110626D01*
X315951Y110722D01*
X315997Y110820D01*
X316040Y110919D01*
X316079Y111020D01*
X316114Y111122D01*
X316146Y111225D01*
X316174Y111329D01*
X316199Y111434D01*
X316220Y111541D01*
X316237Y111647D01*
X316250Y111754D01*
X316259Y111862D01*
X316265Y111970D01*
X316267Y112078D01*
X315315Y109855D02*
X309917Y103505D01*
X316267Y103505D01*
D10*
X295910Y44450D02*
X295910Y31750D01*
X295910Y44450D02*
X295912Y44590D01*
X295918Y44730D01*
X295927Y44870D01*
X295941Y45009D01*
X295958Y45148D01*
X295979Y45286D01*
X296004Y45424D01*
X296033Y45561D01*
X296065Y45697D01*
X296102Y45832D01*
X296142Y45966D01*
X296185Y46099D01*
X296233Y46231D01*
X296283Y46362D01*
X296338Y46491D01*
X296396Y46618D01*
X296457Y46744D01*
X296522Y46868D01*
X296591Y46990D01*
X296662Y47110D01*
X296737Y47228D01*
X296815Y47345D01*
X296897Y47459D01*
X296981Y47570D01*
X297069Y47679D01*
X297159Y47786D01*
X297253Y47891D01*
X297349Y47992D01*
X297448Y48091D01*
X297549Y48187D01*
X297654Y48281D01*
X297761Y48371D01*
X297870Y48459D01*
X297981Y48543D01*
X298095Y48625D01*
X298212Y48703D01*
X298330Y48778D01*
X298450Y48849D01*
X298572Y48918D01*
X298696Y48983D01*
X298822Y49044D01*
X298949Y49102D01*
X299078Y49157D01*
X299209Y49207D01*
X299341Y49255D01*
X299474Y49298D01*
X299608Y49338D01*
X299743Y49375D01*
X299879Y49407D01*
X300016Y49436D01*
X300154Y49461D01*
X300292Y49482D01*
X300431Y49499D01*
X300570Y49513D01*
X300710Y49522D01*
X300850Y49528D01*
X300990Y49530D01*
X295910Y31750D02*
X295912Y31610D01*
X295918Y31470D01*
X295927Y31330D01*
X295941Y31191D01*
X295958Y31052D01*
X295979Y30914D01*
X296004Y30776D01*
X296033Y30639D01*
X296065Y30503D01*
X296102Y30368D01*
X296142Y30234D01*
X296185Y30101D01*
X296233Y29969D01*
X296283Y29838D01*
X296338Y29709D01*
X296396Y29582D01*
X296457Y29456D01*
X296522Y29332D01*
X296591Y29210D01*
X296662Y29090D01*
X296737Y28972D01*
X296815Y28855D01*
X296897Y28741D01*
X296981Y28630D01*
X297069Y28521D01*
X297159Y28414D01*
X297253Y28309D01*
X297349Y28208D01*
X297448Y28109D01*
X297549Y28013D01*
X297654Y27919D01*
X297761Y27829D01*
X297870Y27741D01*
X297981Y27657D01*
X298095Y27575D01*
X298212Y27497D01*
X298330Y27422D01*
X298450Y27351D01*
X298572Y27282D01*
X298696Y27217D01*
X298822Y27156D01*
X298949Y27098D01*
X299078Y27043D01*
X299209Y26993D01*
X299341Y26945D01*
X299474Y26902D01*
X299608Y26862D01*
X299743Y26825D01*
X299879Y26793D01*
X300016Y26764D01*
X300154Y26739D01*
X300292Y26718D01*
X300431Y26701D01*
X300570Y26687D01*
X300710Y26678D01*
X300850Y26672D01*
X300990Y26670D01*
X300990Y49530D02*
X334010Y49530D01*
X339090Y44450D02*
X339090Y31750D01*
X334010Y26670D02*
X300990Y26670D01*
X334010Y49530D02*
X334150Y49528D01*
X334290Y49522D01*
X334430Y49513D01*
X334569Y49499D01*
X334708Y49482D01*
X334846Y49461D01*
X334984Y49436D01*
X335121Y49407D01*
X335257Y49375D01*
X335392Y49338D01*
X335526Y49298D01*
X335659Y49255D01*
X335791Y49207D01*
X335922Y49157D01*
X336051Y49102D01*
X336178Y49044D01*
X336304Y48983D01*
X336428Y48918D01*
X336550Y48849D01*
X336670Y48778D01*
X336788Y48703D01*
X336905Y48625D01*
X337019Y48543D01*
X337130Y48459D01*
X337239Y48371D01*
X337346Y48281D01*
X337451Y48187D01*
X337552Y48091D01*
X337651Y47992D01*
X337747Y47891D01*
X337841Y47786D01*
X337931Y47679D01*
X338019Y47570D01*
X338103Y47459D01*
X338185Y47345D01*
X338263Y47228D01*
X338338Y47110D01*
X338409Y46990D01*
X338478Y46868D01*
X338543Y46744D01*
X338604Y46618D01*
X338662Y46491D01*
X338717Y46362D01*
X338767Y46231D01*
X338815Y46099D01*
X338858Y45966D01*
X338898Y45832D01*
X338935Y45697D01*
X338967Y45561D01*
X338996Y45424D01*
X339021Y45286D01*
X339042Y45148D01*
X339059Y45009D01*
X339073Y44870D01*
X339082Y44730D01*
X339088Y44590D01*
X339090Y44450D01*
X339090Y31750D02*
X339088Y31610D01*
X339082Y31470D01*
X339073Y31330D01*
X339059Y31191D01*
X339042Y31052D01*
X339021Y30914D01*
X338996Y30776D01*
X338967Y30639D01*
X338935Y30503D01*
X338898Y30368D01*
X338858Y30234D01*
X338815Y30101D01*
X338767Y29969D01*
X338717Y29838D01*
X338662Y29709D01*
X338604Y29582D01*
X338543Y29456D01*
X338478Y29332D01*
X338409Y29210D01*
X338338Y29090D01*
X338263Y28972D01*
X338185Y28855D01*
X338103Y28741D01*
X338019Y28630D01*
X337931Y28521D01*
X337841Y28414D01*
X337747Y28309D01*
X337651Y28208D01*
X337552Y28109D01*
X337451Y28013D01*
X337346Y27919D01*
X337239Y27829D01*
X337130Y27741D01*
X337019Y27657D01*
X336905Y27575D01*
X336788Y27497D01*
X336670Y27422D01*
X336550Y27351D01*
X336428Y27282D01*
X336304Y27217D01*
X336178Y27156D01*
X336051Y27098D01*
X335922Y27043D01*
X335791Y26993D01*
X335659Y26945D01*
X335526Y26902D01*
X335392Y26862D01*
X335257Y26825D01*
X335121Y26793D01*
X334984Y26764D01*
X334846Y26739D01*
X334708Y26718D01*
X334569Y26701D01*
X334430Y26687D01*
X334290Y26678D01*
X334150Y26672D01*
X334010Y26670D01*
D11*
X314452Y30480D02*
X314452Y45720D01*
X320802Y45720D02*
X320802Y30480D01*
D12*
X305435Y52705D02*
X302895Y52705D01*
X302795Y52707D01*
X302696Y52713D01*
X302596Y52723D01*
X302498Y52736D01*
X302399Y52754D01*
X302302Y52775D01*
X302206Y52800D01*
X302110Y52829D01*
X302016Y52862D01*
X301923Y52898D01*
X301832Y52938D01*
X301742Y52982D01*
X301654Y53029D01*
X301568Y53079D01*
X301484Y53133D01*
X301402Y53190D01*
X301323Y53250D01*
X301245Y53314D01*
X301171Y53380D01*
X301099Y53449D01*
X301030Y53521D01*
X300964Y53595D01*
X300900Y53673D01*
X300840Y53752D01*
X300783Y53834D01*
X300729Y53918D01*
X300679Y54004D01*
X300632Y54092D01*
X300588Y54182D01*
X300548Y54273D01*
X300512Y54366D01*
X300479Y54460D01*
X300450Y54556D01*
X300425Y54652D01*
X300404Y54749D01*
X300386Y54848D01*
X300373Y54946D01*
X300363Y55046D01*
X300357Y55145D01*
X300355Y55245D01*
X300355Y61595D01*
X300357Y61695D01*
X300363Y61794D01*
X300373Y61894D01*
X300386Y61992D01*
X300404Y62091D01*
X300425Y62188D01*
X300450Y62284D01*
X300479Y62380D01*
X300512Y62474D01*
X300548Y62567D01*
X300588Y62658D01*
X300632Y62748D01*
X300679Y62836D01*
X300729Y62922D01*
X300783Y63006D01*
X300840Y63088D01*
X300900Y63167D01*
X300964Y63245D01*
X301030Y63319D01*
X301099Y63391D01*
X301171Y63460D01*
X301245Y63526D01*
X301323Y63590D01*
X301402Y63650D01*
X301484Y63707D01*
X301568Y63761D01*
X301654Y63811D01*
X301742Y63858D01*
X301832Y63902D01*
X301923Y63942D01*
X302016Y63978D01*
X302110Y64011D01*
X302206Y64040D01*
X302302Y64065D01*
X302399Y64086D01*
X302498Y64104D01*
X302596Y64117D01*
X302696Y64127D01*
X302795Y64133D01*
X302895Y64135D01*
X305435Y64135D01*
X309917Y52705D02*
X313092Y52705D01*
X313203Y52707D01*
X313313Y52713D01*
X313424Y52722D01*
X313534Y52736D01*
X313643Y52753D01*
X313752Y52774D01*
X313860Y52799D01*
X313967Y52828D01*
X314073Y52860D01*
X314178Y52896D01*
X314281Y52936D01*
X314383Y52979D01*
X314484Y53026D01*
X314583Y53077D01*
X314680Y53130D01*
X314774Y53187D01*
X314867Y53248D01*
X314958Y53311D01*
X315047Y53378D01*
X315133Y53448D01*
X315216Y53521D01*
X315298Y53596D01*
X315376Y53674D01*
X315451Y53756D01*
X315524Y53839D01*
X315594Y53925D01*
X315661Y54014D01*
X315724Y54105D01*
X315785Y54198D01*
X315842Y54292D01*
X315895Y54389D01*
X315946Y54488D01*
X315993Y54589D01*
X316036Y54691D01*
X316076Y54794D01*
X316112Y54899D01*
X316144Y55005D01*
X316173Y55112D01*
X316198Y55220D01*
X316219Y55329D01*
X316236Y55438D01*
X316250Y55548D01*
X316259Y55659D01*
X316265Y55769D01*
X316267Y55880D01*
X316265Y55991D01*
X316259Y56101D01*
X316250Y56212D01*
X316236Y56322D01*
X316219Y56431D01*
X316198Y56540D01*
X316173Y56648D01*
X316144Y56755D01*
X316112Y56861D01*
X316076Y56966D01*
X316036Y57069D01*
X315993Y57171D01*
X315946Y57272D01*
X315895Y57371D01*
X315842Y57467D01*
X315785Y57562D01*
X315724Y57655D01*
X315661Y57746D01*
X315594Y57835D01*
X315524Y57921D01*
X315451Y58004D01*
X315376Y58086D01*
X315298Y58164D01*
X315216Y58239D01*
X315133Y58312D01*
X315047Y58382D01*
X314958Y58449D01*
X314867Y58512D01*
X314774Y58573D01*
X314680Y58630D01*
X314583Y58683D01*
X314484Y58734D01*
X314383Y58781D01*
X314281Y58824D01*
X314178Y58864D01*
X314073Y58900D01*
X313967Y58932D01*
X313860Y58961D01*
X313752Y58986D01*
X313643Y59007D01*
X313534Y59024D01*
X313424Y59038D01*
X313313Y59047D01*
X313203Y59053D01*
X313092Y59055D01*
X313727Y64135D02*
X309917Y64135D01*
X313727Y64135D02*
X313827Y64133D01*
X313926Y64127D01*
X314026Y64117D01*
X314124Y64104D01*
X314223Y64086D01*
X314320Y64065D01*
X314416Y64040D01*
X314512Y64011D01*
X314606Y63978D01*
X314699Y63942D01*
X314790Y63902D01*
X314880Y63858D01*
X314968Y63811D01*
X315054Y63761D01*
X315138Y63707D01*
X315220Y63650D01*
X315299Y63590D01*
X315377Y63526D01*
X315451Y63460D01*
X315523Y63391D01*
X315592Y63319D01*
X315658Y63245D01*
X315722Y63167D01*
X315782Y63088D01*
X315839Y63006D01*
X315893Y62922D01*
X315943Y62836D01*
X315990Y62748D01*
X316034Y62658D01*
X316074Y62567D01*
X316110Y62474D01*
X316143Y62380D01*
X316172Y62284D01*
X316197Y62188D01*
X316218Y62091D01*
X316236Y61992D01*
X316249Y61894D01*
X316259Y61794D01*
X316265Y61695D01*
X316267Y61595D01*
X316265Y61495D01*
X316259Y61396D01*
X316249Y61296D01*
X316236Y61198D01*
X316218Y61099D01*
X316197Y61002D01*
X316172Y60906D01*
X316143Y60810D01*
X316110Y60716D01*
X316074Y60623D01*
X316034Y60532D01*
X315990Y60442D01*
X315943Y60354D01*
X315893Y60268D01*
X315839Y60184D01*
X315782Y60102D01*
X315722Y60023D01*
X315658Y59945D01*
X315592Y59871D01*
X315523Y59799D01*
X315451Y59730D01*
X315377Y59664D01*
X315299Y59600D01*
X315220Y59540D01*
X315138Y59483D01*
X315054Y59429D01*
X314968Y59379D01*
X314880Y59332D01*
X314790Y59288D01*
X314699Y59248D01*
X314606Y59212D01*
X314512Y59179D01*
X314416Y59150D01*
X314320Y59125D01*
X314223Y59104D01*
X314124Y59086D01*
X314026Y59073D01*
X313926Y59063D01*
X313827Y59057D01*
X313727Y59055D01*
X311187Y59055D01*
D10*
X241300Y105410D02*
X38100Y105410D01*
X38100Y46990D02*
X241300Y46990D01*
X241300Y105410D01*
X38100Y105410D02*
X38100Y86360D01*
X38100Y66040D02*
X38100Y46990D01*
X38100Y66040D02*
X38347Y66043D01*
X38595Y66052D01*
X38842Y66067D01*
X39088Y66088D01*
X39334Y66115D01*
X39579Y66148D01*
X39824Y66187D01*
X40067Y66232D01*
X40309Y66283D01*
X40550Y66340D01*
X40789Y66402D01*
X41027Y66471D01*
X41263Y66545D01*
X41497Y66625D01*
X41729Y66710D01*
X41959Y66802D01*
X42187Y66898D01*
X42412Y67001D01*
X42635Y67108D01*
X42855Y67222D01*
X43072Y67340D01*
X43287Y67464D01*
X43498Y67593D01*
X43706Y67727D01*
X43911Y67866D01*
X44112Y68010D01*
X44310Y68158D01*
X44504Y68312D01*
X44694Y68470D01*
X44880Y68633D01*
X45062Y68800D01*
X45240Y68972D01*
X45414Y69148D01*
X45584Y69328D01*
X45749Y69513D01*
X45909Y69701D01*
X46065Y69893D01*
X46217Y70089D01*
X46363Y70288D01*
X46505Y70491D01*
X46641Y70698D01*
X46773Y70907D01*
X46899Y71120D01*
X47020Y71336D01*
X47136Y71554D01*
X47246Y71776D01*
X47351Y72000D01*
X47451Y72226D01*
X47545Y72455D01*
X47633Y72686D01*
X47716Y72920D01*
X47793Y73155D01*
X47864Y73392D01*
X47930Y73630D01*
X47989Y73870D01*
X48043Y74112D01*
X48091Y74355D01*
X48133Y74598D01*
X48169Y74843D01*
X48199Y75089D01*
X48223Y75335D01*
X48241Y75582D01*
X48253Y75829D01*
X48259Y76076D01*
X48259Y76324D01*
X48253Y76571D01*
X48241Y76818D01*
X48223Y77065D01*
X48199Y77311D01*
X48169Y77557D01*
X48133Y77802D01*
X48091Y78045D01*
X48043Y78288D01*
X47989Y78530D01*
X47930Y78770D01*
X47864Y79008D01*
X47793Y79245D01*
X47716Y79480D01*
X47633Y79714D01*
X47545Y79945D01*
X47451Y80174D01*
X47351Y80400D01*
X47246Y80624D01*
X47136Y80846D01*
X47020Y81064D01*
X46899Y81280D01*
X46773Y81493D01*
X46641Y81702D01*
X46505Y81909D01*
X46363Y82112D01*
X46217Y82311D01*
X46065Y82507D01*
X45909Y82699D01*
X45749Y82887D01*
X45584Y83072D01*
X45414Y83252D01*
X45240Y83428D01*
X45062Y83600D01*
X44880Y83767D01*
X44694Y83930D01*
X44504Y84088D01*
X44310Y84242D01*
X44112Y84390D01*
X43911Y84534D01*
X43706Y84673D01*
X43498Y84807D01*
X43287Y84936D01*
X43072Y85060D01*
X42855Y85178D01*
X42635Y85292D01*
X42412Y85399D01*
X42187Y85502D01*
X41959Y85598D01*
X41729Y85690D01*
X41497Y85775D01*
X41263Y85855D01*
X41027Y85929D01*
X40789Y85998D01*
X40550Y86060D01*
X40309Y86117D01*
X40067Y86168D01*
X39824Y86213D01*
X39579Y86252D01*
X39334Y86285D01*
X39088Y86312D01*
X38842Y86333D01*
X38595Y86348D01*
X38347Y86357D01*
X38100Y86360D01*
D12*
X33655Y48895D02*
X22225Y48895D01*
X33655Y47625D02*
X33655Y50165D01*
X22225Y50165D02*
X22225Y47625D01*
X33655Y57367D02*
X33655Y59907D01*
X33655Y57367D02*
X33653Y57267D01*
X33647Y57168D01*
X33637Y57068D01*
X33624Y56970D01*
X33606Y56871D01*
X33585Y56774D01*
X33560Y56678D01*
X33531Y56582D01*
X33498Y56488D01*
X33462Y56395D01*
X33422Y56304D01*
X33378Y56214D01*
X33331Y56126D01*
X33281Y56040D01*
X33227Y55956D01*
X33170Y55874D01*
X33110Y55795D01*
X33046Y55717D01*
X32980Y55643D01*
X32911Y55571D01*
X32839Y55502D01*
X32765Y55436D01*
X32687Y55372D01*
X32608Y55312D01*
X32526Y55255D01*
X32442Y55201D01*
X32356Y55151D01*
X32268Y55104D01*
X32178Y55060D01*
X32087Y55020D01*
X31994Y54984D01*
X31900Y54951D01*
X31804Y54922D01*
X31708Y54897D01*
X31611Y54876D01*
X31512Y54858D01*
X31414Y54845D01*
X31314Y54835D01*
X31215Y54829D01*
X31115Y54827D01*
X24765Y54827D01*
X24665Y54829D01*
X24566Y54835D01*
X24466Y54845D01*
X24368Y54858D01*
X24269Y54876D01*
X24172Y54897D01*
X24076Y54922D01*
X23980Y54951D01*
X23886Y54984D01*
X23793Y55020D01*
X23702Y55060D01*
X23612Y55104D01*
X23524Y55151D01*
X23438Y55201D01*
X23354Y55255D01*
X23272Y55312D01*
X23193Y55372D01*
X23115Y55436D01*
X23041Y55502D01*
X22969Y55571D01*
X22900Y55643D01*
X22834Y55717D01*
X22770Y55795D01*
X22710Y55874D01*
X22653Y55956D01*
X22599Y56040D01*
X22549Y56126D01*
X22502Y56214D01*
X22458Y56304D01*
X22418Y56395D01*
X22382Y56488D01*
X22349Y56582D01*
X22320Y56678D01*
X22295Y56774D01*
X22274Y56871D01*
X22256Y56970D01*
X22243Y57068D01*
X22233Y57168D01*
X22227Y57267D01*
X22225Y57367D01*
X22225Y59907D01*
X24765Y64389D02*
X22225Y67564D01*
X33655Y67564D01*
X33655Y64389D02*
X33655Y70739D01*
D10*
X76200Y359410D02*
X279400Y359410D01*
X279400Y300990D02*
X76200Y300990D01*
X279400Y300990D02*
X279400Y359410D01*
X76200Y359410D02*
X76200Y340360D01*
X76200Y320040D02*
X76200Y300990D01*
X76200Y320040D02*
X76447Y320043D01*
X76695Y320052D01*
X76942Y320067D01*
X77188Y320088D01*
X77434Y320115D01*
X77679Y320148D01*
X77924Y320187D01*
X78167Y320232D01*
X78409Y320283D01*
X78650Y320340D01*
X78889Y320402D01*
X79127Y320471D01*
X79363Y320545D01*
X79597Y320625D01*
X79829Y320710D01*
X80059Y320802D01*
X80287Y320898D01*
X80512Y321001D01*
X80735Y321108D01*
X80955Y321222D01*
X81172Y321340D01*
X81387Y321464D01*
X81598Y321593D01*
X81806Y321727D01*
X82011Y321866D01*
X82212Y322010D01*
X82410Y322158D01*
X82604Y322312D01*
X82794Y322470D01*
X82980Y322633D01*
X83162Y322800D01*
X83340Y322972D01*
X83514Y323148D01*
X83684Y323328D01*
X83849Y323513D01*
X84009Y323701D01*
X84165Y323893D01*
X84317Y324089D01*
X84463Y324288D01*
X84605Y324491D01*
X84741Y324698D01*
X84873Y324907D01*
X84999Y325120D01*
X85120Y325336D01*
X85236Y325554D01*
X85346Y325776D01*
X85451Y326000D01*
X85551Y326226D01*
X85645Y326455D01*
X85733Y326686D01*
X85816Y326920D01*
X85893Y327155D01*
X85964Y327392D01*
X86030Y327630D01*
X86089Y327870D01*
X86143Y328112D01*
X86191Y328355D01*
X86233Y328598D01*
X86269Y328843D01*
X86299Y329089D01*
X86323Y329335D01*
X86341Y329582D01*
X86353Y329829D01*
X86359Y330076D01*
X86359Y330324D01*
X86353Y330571D01*
X86341Y330818D01*
X86323Y331065D01*
X86299Y331311D01*
X86269Y331557D01*
X86233Y331802D01*
X86191Y332045D01*
X86143Y332288D01*
X86089Y332530D01*
X86030Y332770D01*
X85964Y333008D01*
X85893Y333245D01*
X85816Y333480D01*
X85733Y333714D01*
X85645Y333945D01*
X85551Y334174D01*
X85451Y334400D01*
X85346Y334624D01*
X85236Y334846D01*
X85120Y335064D01*
X84999Y335280D01*
X84873Y335493D01*
X84741Y335702D01*
X84605Y335909D01*
X84463Y336112D01*
X84317Y336311D01*
X84165Y336507D01*
X84009Y336699D01*
X83849Y336887D01*
X83684Y337072D01*
X83514Y337252D01*
X83340Y337428D01*
X83162Y337600D01*
X82980Y337767D01*
X82794Y337930D01*
X82604Y338088D01*
X82410Y338242D01*
X82212Y338390D01*
X82011Y338534D01*
X81806Y338673D01*
X81598Y338807D01*
X81387Y338936D01*
X81172Y339060D01*
X80955Y339178D01*
X80735Y339292D01*
X80512Y339399D01*
X80287Y339502D01*
X80059Y339598D01*
X79829Y339690D01*
X79597Y339775D01*
X79363Y339855D01*
X79127Y339929D01*
X78889Y339998D01*
X78650Y340060D01*
X78409Y340117D01*
X78167Y340168D01*
X77924Y340213D01*
X77679Y340252D01*
X77434Y340285D01*
X77188Y340312D01*
X76942Y340333D01*
X76695Y340348D01*
X76447Y340357D01*
X76200Y340360D01*
X114300Y232410D02*
X317500Y232410D01*
X317500Y173990D02*
X114300Y173990D01*
X317500Y173990D02*
X317500Y232410D01*
X114300Y232410D02*
X114300Y213360D01*
X114300Y193040D02*
X114300Y173990D01*
X114300Y193040D02*
X114547Y193043D01*
X114795Y193052D01*
X115042Y193067D01*
X115288Y193088D01*
X115534Y193115D01*
X115779Y193148D01*
X116024Y193187D01*
X116267Y193232D01*
X116509Y193283D01*
X116750Y193340D01*
X116989Y193402D01*
X117227Y193471D01*
X117463Y193545D01*
X117697Y193625D01*
X117929Y193710D01*
X118159Y193802D01*
X118387Y193898D01*
X118612Y194001D01*
X118835Y194108D01*
X119055Y194222D01*
X119272Y194340D01*
X119487Y194464D01*
X119698Y194593D01*
X119906Y194727D01*
X120111Y194866D01*
X120312Y195010D01*
X120510Y195158D01*
X120704Y195312D01*
X120894Y195470D01*
X121080Y195633D01*
X121262Y195800D01*
X121440Y195972D01*
X121614Y196148D01*
X121784Y196328D01*
X121949Y196513D01*
X122109Y196701D01*
X122265Y196893D01*
X122417Y197089D01*
X122563Y197288D01*
X122705Y197491D01*
X122841Y197698D01*
X122973Y197907D01*
X123099Y198120D01*
X123220Y198336D01*
X123336Y198554D01*
X123446Y198776D01*
X123551Y199000D01*
X123651Y199226D01*
X123745Y199455D01*
X123833Y199686D01*
X123916Y199920D01*
X123993Y200155D01*
X124064Y200392D01*
X124130Y200630D01*
X124189Y200870D01*
X124243Y201112D01*
X124291Y201355D01*
X124333Y201598D01*
X124369Y201843D01*
X124399Y202089D01*
X124423Y202335D01*
X124441Y202582D01*
X124453Y202829D01*
X124459Y203076D01*
X124459Y203324D01*
X124453Y203571D01*
X124441Y203818D01*
X124423Y204065D01*
X124399Y204311D01*
X124369Y204557D01*
X124333Y204802D01*
X124291Y205045D01*
X124243Y205288D01*
X124189Y205530D01*
X124130Y205770D01*
X124064Y206008D01*
X123993Y206245D01*
X123916Y206480D01*
X123833Y206714D01*
X123745Y206945D01*
X123651Y207174D01*
X123551Y207400D01*
X123446Y207624D01*
X123336Y207846D01*
X123220Y208064D01*
X123099Y208280D01*
X122973Y208493D01*
X122841Y208702D01*
X122705Y208909D01*
X122563Y209112D01*
X122417Y209311D01*
X122265Y209507D01*
X122109Y209699D01*
X121949Y209887D01*
X121784Y210072D01*
X121614Y210252D01*
X121440Y210428D01*
X121262Y210600D01*
X121080Y210767D01*
X120894Y210930D01*
X120704Y211088D01*
X120510Y211242D01*
X120312Y211390D01*
X120111Y211534D01*
X119906Y211673D01*
X119698Y211807D01*
X119487Y211936D01*
X119272Y212060D01*
X119055Y212178D01*
X118835Y212292D01*
X118612Y212399D01*
X118387Y212502D01*
X118159Y212598D01*
X117929Y212690D01*
X117697Y212775D01*
X117463Y212855D01*
X117227Y212929D01*
X116989Y212998D01*
X116750Y213060D01*
X116509Y213117D01*
X116267Y213168D01*
X116024Y213213D01*
X115779Y213252D01*
X115534Y213285D01*
X115288Y213312D01*
X115042Y213333D01*
X114795Y213348D01*
X114547Y213357D01*
X114300Y213360D01*
D12*
X109855Y175895D02*
X98425Y175895D01*
X109855Y174625D02*
X109855Y177165D01*
X98425Y177165D02*
X98425Y174625D01*
X109855Y184367D02*
X109855Y186907D01*
X109855Y184367D02*
X109853Y184267D01*
X109847Y184168D01*
X109837Y184068D01*
X109824Y183970D01*
X109806Y183871D01*
X109785Y183774D01*
X109760Y183678D01*
X109731Y183582D01*
X109698Y183488D01*
X109662Y183395D01*
X109622Y183304D01*
X109578Y183214D01*
X109531Y183126D01*
X109481Y183040D01*
X109427Y182956D01*
X109370Y182874D01*
X109310Y182795D01*
X109246Y182717D01*
X109180Y182643D01*
X109111Y182571D01*
X109039Y182502D01*
X108965Y182436D01*
X108887Y182372D01*
X108808Y182312D01*
X108726Y182255D01*
X108642Y182201D01*
X108556Y182151D01*
X108468Y182104D01*
X108378Y182060D01*
X108287Y182020D01*
X108194Y181984D01*
X108100Y181951D01*
X108004Y181922D01*
X107908Y181897D01*
X107811Y181876D01*
X107712Y181858D01*
X107614Y181845D01*
X107514Y181835D01*
X107415Y181829D01*
X107315Y181827D01*
X100965Y181827D01*
X100865Y181829D01*
X100766Y181835D01*
X100666Y181845D01*
X100568Y181858D01*
X100469Y181876D01*
X100372Y181897D01*
X100276Y181922D01*
X100180Y181951D01*
X100086Y181984D01*
X99993Y182020D01*
X99902Y182060D01*
X99812Y182104D01*
X99724Y182151D01*
X99638Y182201D01*
X99554Y182255D01*
X99472Y182312D01*
X99393Y182372D01*
X99315Y182436D01*
X99241Y182502D01*
X99169Y182571D01*
X99100Y182643D01*
X99034Y182717D01*
X98970Y182795D01*
X98910Y182874D01*
X98853Y182956D01*
X98799Y183040D01*
X98749Y183126D01*
X98702Y183214D01*
X98658Y183304D01*
X98618Y183395D01*
X98582Y183488D01*
X98549Y183582D01*
X98520Y183678D01*
X98495Y183774D01*
X98474Y183871D01*
X98456Y183970D01*
X98443Y184068D01*
X98433Y184168D01*
X98427Y184267D01*
X98425Y184367D01*
X98425Y186907D01*
X109855Y191389D02*
X109855Y194564D01*
X109853Y194675D01*
X109847Y194785D01*
X109838Y194896D01*
X109824Y195006D01*
X109807Y195115D01*
X109786Y195224D01*
X109761Y195332D01*
X109732Y195439D01*
X109700Y195545D01*
X109664Y195650D01*
X109624Y195753D01*
X109581Y195855D01*
X109534Y195956D01*
X109483Y196055D01*
X109430Y196152D01*
X109373Y196246D01*
X109312Y196339D01*
X109249Y196430D01*
X109182Y196519D01*
X109112Y196605D01*
X109039Y196688D01*
X108964Y196770D01*
X108886Y196848D01*
X108804Y196923D01*
X108721Y196996D01*
X108635Y197066D01*
X108546Y197133D01*
X108455Y197196D01*
X108362Y197257D01*
X108268Y197314D01*
X108171Y197367D01*
X108072Y197418D01*
X107971Y197465D01*
X107869Y197508D01*
X107766Y197548D01*
X107661Y197584D01*
X107555Y197616D01*
X107448Y197645D01*
X107340Y197670D01*
X107231Y197691D01*
X107122Y197708D01*
X107012Y197722D01*
X106901Y197731D01*
X106791Y197737D01*
X106680Y197739D01*
X106569Y197737D01*
X106459Y197731D01*
X106348Y197722D01*
X106238Y197708D01*
X106129Y197691D01*
X106020Y197670D01*
X105912Y197645D01*
X105805Y197616D01*
X105699Y197584D01*
X105594Y197548D01*
X105491Y197508D01*
X105389Y197465D01*
X105288Y197418D01*
X105189Y197367D01*
X105093Y197314D01*
X104998Y197257D01*
X104905Y197196D01*
X104814Y197133D01*
X104725Y197066D01*
X104639Y196996D01*
X104556Y196923D01*
X104474Y196848D01*
X104396Y196770D01*
X104321Y196688D01*
X104248Y196605D01*
X104178Y196519D01*
X104111Y196430D01*
X104048Y196339D01*
X103987Y196246D01*
X103930Y196152D01*
X103877Y196055D01*
X103826Y195956D01*
X103779Y195855D01*
X103736Y195753D01*
X103696Y195650D01*
X103660Y195545D01*
X103628Y195439D01*
X103599Y195332D01*
X103574Y195224D01*
X103553Y195115D01*
X103536Y195006D01*
X103522Y194896D01*
X103513Y194785D01*
X103507Y194675D01*
X103505Y194564D01*
X98425Y195199D02*
X98425Y191389D01*
X98425Y195199D02*
X98427Y195299D01*
X98433Y195398D01*
X98443Y195498D01*
X98456Y195596D01*
X98474Y195695D01*
X98495Y195792D01*
X98520Y195888D01*
X98549Y195984D01*
X98582Y196078D01*
X98618Y196171D01*
X98658Y196262D01*
X98702Y196352D01*
X98749Y196440D01*
X98799Y196526D01*
X98853Y196610D01*
X98910Y196692D01*
X98970Y196771D01*
X99034Y196849D01*
X99100Y196923D01*
X99169Y196995D01*
X99241Y197064D01*
X99315Y197130D01*
X99393Y197194D01*
X99472Y197254D01*
X99554Y197311D01*
X99638Y197365D01*
X99724Y197415D01*
X99812Y197462D01*
X99902Y197506D01*
X99993Y197546D01*
X100086Y197582D01*
X100180Y197615D01*
X100276Y197644D01*
X100372Y197669D01*
X100469Y197690D01*
X100568Y197708D01*
X100666Y197721D01*
X100766Y197731D01*
X100865Y197737D01*
X100965Y197739D01*
X101065Y197737D01*
X101164Y197731D01*
X101264Y197721D01*
X101362Y197708D01*
X101461Y197690D01*
X101558Y197669D01*
X101654Y197644D01*
X101750Y197615D01*
X101844Y197582D01*
X101937Y197546D01*
X102028Y197506D01*
X102118Y197462D01*
X102206Y197415D01*
X102292Y197365D01*
X102376Y197311D01*
X102458Y197254D01*
X102537Y197194D01*
X102615Y197130D01*
X102689Y197064D01*
X102761Y196995D01*
X102830Y196923D01*
X102896Y196849D01*
X102960Y196771D01*
X103020Y196692D01*
X103077Y196610D01*
X103131Y196526D01*
X103181Y196440D01*
X103228Y196352D01*
X103272Y196262D01*
X103312Y196171D01*
X103348Y196078D01*
X103381Y195984D01*
X103410Y195888D01*
X103435Y195792D01*
X103456Y195695D01*
X103474Y195596D01*
X103487Y195498D01*
X103497Y195398D01*
X103503Y195299D01*
X103505Y195199D01*
X103505Y192659D01*
D10*
X326390Y266700D02*
X326390Y368300D01*
X384810Y368300D02*
X384810Y266700D01*
X384810Y368300D02*
X326390Y368300D01*
X326390Y266700D02*
X345440Y266700D01*
X365760Y266700D02*
X384810Y266700D01*
X365760Y266700D02*
X365757Y266947D01*
X365748Y267195D01*
X365733Y267442D01*
X365712Y267688D01*
X365685Y267934D01*
X365652Y268179D01*
X365613Y268424D01*
X365568Y268667D01*
X365517Y268909D01*
X365460Y269150D01*
X365398Y269389D01*
X365329Y269627D01*
X365255Y269863D01*
X365175Y270097D01*
X365090Y270329D01*
X364998Y270559D01*
X364902Y270787D01*
X364799Y271012D01*
X364692Y271235D01*
X364578Y271455D01*
X364460Y271672D01*
X364336Y271887D01*
X364207Y272098D01*
X364073Y272306D01*
X363934Y272511D01*
X363790Y272712D01*
X363642Y272910D01*
X363488Y273104D01*
X363330Y273294D01*
X363167Y273480D01*
X363000Y273662D01*
X362828Y273840D01*
X362652Y274014D01*
X362472Y274184D01*
X362287Y274349D01*
X362099Y274509D01*
X361907Y274665D01*
X361711Y274817D01*
X361512Y274963D01*
X361309Y275105D01*
X361102Y275241D01*
X360893Y275373D01*
X360680Y275499D01*
X360464Y275620D01*
X360246Y275736D01*
X360024Y275846D01*
X359800Y275951D01*
X359574Y276051D01*
X359345Y276145D01*
X359114Y276233D01*
X358880Y276316D01*
X358645Y276393D01*
X358408Y276464D01*
X358170Y276530D01*
X357930Y276589D01*
X357688Y276643D01*
X357445Y276691D01*
X357202Y276733D01*
X356957Y276769D01*
X356711Y276799D01*
X356465Y276823D01*
X356218Y276841D01*
X355971Y276853D01*
X355724Y276859D01*
X355476Y276859D01*
X355229Y276853D01*
X354982Y276841D01*
X354735Y276823D01*
X354489Y276799D01*
X354243Y276769D01*
X353998Y276733D01*
X353755Y276691D01*
X353512Y276643D01*
X353270Y276589D01*
X353030Y276530D01*
X352792Y276464D01*
X352555Y276393D01*
X352320Y276316D01*
X352086Y276233D01*
X351855Y276145D01*
X351626Y276051D01*
X351400Y275951D01*
X351176Y275846D01*
X350954Y275736D01*
X350736Y275620D01*
X350520Y275499D01*
X350307Y275373D01*
X350098Y275241D01*
X349891Y275105D01*
X349688Y274963D01*
X349489Y274817D01*
X349293Y274665D01*
X349101Y274509D01*
X348913Y274349D01*
X348728Y274184D01*
X348548Y274014D01*
X348372Y273840D01*
X348200Y273662D01*
X348033Y273480D01*
X347870Y273294D01*
X347712Y273104D01*
X347558Y272910D01*
X347410Y272712D01*
X347266Y272511D01*
X347127Y272306D01*
X346993Y272098D01*
X346864Y271887D01*
X346740Y271672D01*
X346622Y271455D01*
X346508Y271235D01*
X346401Y271012D01*
X346298Y270787D01*
X346202Y270559D01*
X346110Y270329D01*
X346025Y270097D01*
X345945Y269863D01*
X345871Y269627D01*
X345802Y269389D01*
X345740Y269150D01*
X345683Y268909D01*
X345632Y268667D01*
X345587Y268424D01*
X345548Y268179D01*
X345515Y267934D01*
X345488Y267688D01*
X345467Y267442D01*
X345452Y267195D01*
X345443Y266947D01*
X345440Y266700D01*
D12*
X362331Y263525D02*
X362331Y252095D01*
X361061Y252095D02*
X363601Y252095D01*
X363601Y263525D02*
X361061Y263525D01*
X370803Y252095D02*
X373343Y252095D01*
X370803Y252095D02*
X370703Y252097D01*
X370604Y252103D01*
X370504Y252113D01*
X370406Y252126D01*
X370307Y252144D01*
X370210Y252165D01*
X370114Y252190D01*
X370018Y252219D01*
X369924Y252252D01*
X369831Y252288D01*
X369740Y252328D01*
X369650Y252372D01*
X369562Y252419D01*
X369476Y252469D01*
X369392Y252523D01*
X369310Y252580D01*
X369231Y252640D01*
X369153Y252704D01*
X369079Y252770D01*
X369007Y252839D01*
X368938Y252911D01*
X368872Y252985D01*
X368808Y253063D01*
X368748Y253142D01*
X368691Y253224D01*
X368637Y253308D01*
X368587Y253394D01*
X368540Y253482D01*
X368496Y253572D01*
X368456Y253663D01*
X368420Y253756D01*
X368387Y253850D01*
X368358Y253946D01*
X368333Y254042D01*
X368312Y254139D01*
X368294Y254238D01*
X368281Y254336D01*
X368271Y254436D01*
X368265Y254535D01*
X368263Y254635D01*
X368263Y260985D01*
X368265Y261085D01*
X368271Y261184D01*
X368281Y261284D01*
X368294Y261382D01*
X368312Y261481D01*
X368333Y261578D01*
X368358Y261674D01*
X368387Y261770D01*
X368420Y261864D01*
X368456Y261957D01*
X368496Y262048D01*
X368540Y262138D01*
X368587Y262226D01*
X368637Y262312D01*
X368691Y262396D01*
X368748Y262478D01*
X368808Y262557D01*
X368872Y262635D01*
X368938Y262709D01*
X369007Y262781D01*
X369079Y262850D01*
X369153Y262916D01*
X369231Y262980D01*
X369310Y263040D01*
X369392Y263097D01*
X369476Y263151D01*
X369562Y263201D01*
X369650Y263248D01*
X369740Y263292D01*
X369831Y263332D01*
X369924Y263368D01*
X370018Y263401D01*
X370114Y263430D01*
X370210Y263455D01*
X370307Y263476D01*
X370406Y263494D01*
X370504Y263507D01*
X370604Y263517D01*
X370703Y263523D01*
X370803Y263525D01*
X373343Y263525D01*
X377825Y252095D02*
X381635Y252095D01*
X381735Y252097D01*
X381834Y252103D01*
X381934Y252113D01*
X382032Y252126D01*
X382131Y252144D01*
X382228Y252165D01*
X382324Y252190D01*
X382420Y252219D01*
X382514Y252252D01*
X382607Y252288D01*
X382698Y252328D01*
X382788Y252372D01*
X382876Y252419D01*
X382962Y252469D01*
X383046Y252523D01*
X383128Y252580D01*
X383207Y252640D01*
X383285Y252704D01*
X383359Y252770D01*
X383431Y252839D01*
X383500Y252911D01*
X383566Y252985D01*
X383630Y253063D01*
X383690Y253142D01*
X383747Y253224D01*
X383801Y253308D01*
X383851Y253394D01*
X383898Y253482D01*
X383942Y253572D01*
X383982Y253663D01*
X384018Y253756D01*
X384051Y253850D01*
X384080Y253946D01*
X384105Y254042D01*
X384126Y254139D01*
X384144Y254238D01*
X384157Y254336D01*
X384167Y254436D01*
X384173Y254535D01*
X384175Y254635D01*
X384175Y255905D01*
X384173Y256005D01*
X384167Y256104D01*
X384157Y256204D01*
X384144Y256302D01*
X384126Y256401D01*
X384105Y256498D01*
X384080Y256594D01*
X384051Y256690D01*
X384018Y256784D01*
X383982Y256877D01*
X383942Y256968D01*
X383898Y257058D01*
X383851Y257146D01*
X383801Y257232D01*
X383747Y257316D01*
X383690Y257398D01*
X383630Y257477D01*
X383566Y257555D01*
X383500Y257629D01*
X383431Y257701D01*
X383359Y257770D01*
X383285Y257836D01*
X383207Y257900D01*
X383128Y257960D01*
X383046Y258017D01*
X382962Y258071D01*
X382876Y258121D01*
X382788Y258168D01*
X382698Y258212D01*
X382607Y258252D01*
X382514Y258288D01*
X382420Y258321D01*
X382324Y258350D01*
X382228Y258375D01*
X382131Y258396D01*
X382032Y258414D01*
X381934Y258427D01*
X381834Y258437D01*
X381735Y258443D01*
X381635Y258445D01*
X377825Y258445D01*
X377825Y263525D01*
X384175Y263525D01*
D13*
X425450Y127000D02*
X425450Y25400D01*
D10*
X556260Y31750D02*
X556260Y120650D01*
X556260Y31750D02*
X556258Y31592D01*
X556252Y31433D01*
X556242Y31275D01*
X556228Y31118D01*
X556211Y30960D01*
X556189Y30804D01*
X556164Y30647D01*
X556134Y30492D01*
X556101Y30337D01*
X556064Y30183D01*
X556023Y30030D01*
X555978Y29878D01*
X555929Y29728D01*
X555877Y29578D01*
X555821Y29430D01*
X555761Y29283D01*
X555698Y29138D01*
X555631Y28995D01*
X555561Y28853D01*
X555487Y28713D01*
X555409Y28575D01*
X555328Y28439D01*
X555244Y28305D01*
X555157Y28173D01*
X555066Y28043D01*
X554972Y27916D01*
X554875Y27791D01*
X554774Y27668D01*
X554671Y27548D01*
X554565Y27431D01*
X554456Y27316D01*
X554344Y27204D01*
X554229Y27095D01*
X554112Y26989D01*
X553992Y26886D01*
X553869Y26785D01*
X553744Y26688D01*
X553617Y26594D01*
X553487Y26503D01*
X553355Y26416D01*
X553221Y26332D01*
X553085Y26251D01*
X552947Y26173D01*
X552807Y26099D01*
X552665Y26029D01*
X552522Y25962D01*
X552377Y25899D01*
X552230Y25839D01*
X552082Y25783D01*
X551932Y25731D01*
X551782Y25682D01*
X551630Y25637D01*
X551477Y25596D01*
X551323Y25559D01*
X551168Y25526D01*
X551013Y25496D01*
X550856Y25471D01*
X550700Y25449D01*
X550542Y25432D01*
X550385Y25418D01*
X550227Y25408D01*
X550068Y25402D01*
X549910Y25400D01*
X556260Y120650D02*
X556258Y120808D01*
X556252Y120967D01*
X556242Y121125D01*
X556228Y121282D01*
X556211Y121440D01*
X556189Y121596D01*
X556164Y121753D01*
X556134Y121908D01*
X556101Y122063D01*
X556064Y122217D01*
X556023Y122370D01*
X555978Y122522D01*
X555929Y122672D01*
X555877Y122822D01*
X555821Y122970D01*
X555761Y123117D01*
X555698Y123262D01*
X555631Y123405D01*
X555561Y123547D01*
X555487Y123687D01*
X555409Y123825D01*
X555328Y123961D01*
X555244Y124095D01*
X555157Y124227D01*
X555066Y124357D01*
X554972Y124484D01*
X554875Y124609D01*
X554774Y124732D01*
X554671Y124852D01*
X554565Y124969D01*
X554456Y125084D01*
X554344Y125196D01*
X554229Y125305D01*
X554112Y125411D01*
X553992Y125514D01*
X553869Y125615D01*
X553744Y125712D01*
X553617Y125806D01*
X553487Y125897D01*
X553355Y125984D01*
X553221Y126068D01*
X553085Y126149D01*
X552947Y126227D01*
X552807Y126301D01*
X552665Y126371D01*
X552522Y126438D01*
X552377Y126501D01*
X552230Y126561D01*
X552082Y126617D01*
X551932Y126669D01*
X551782Y126718D01*
X551630Y126763D01*
X551477Y126804D01*
X551323Y126841D01*
X551168Y126874D01*
X551013Y126904D01*
X550856Y126929D01*
X550700Y126951D01*
X550542Y126968D01*
X550385Y126982D01*
X550227Y126992D01*
X550068Y126998D01*
X549910Y127000D01*
D11*
X539750Y79502D02*
X514350Y79502D01*
X514350Y73152D01*
X539750Y73152D01*
X539750Y79502D01*
X539750Y66802D02*
X527050Y66802D01*
X527050Y85598D02*
X539750Y85598D01*
D10*
X527050Y66802D02*
X527050Y57150D01*
D11*
X527050Y66802D02*
X514350Y66802D01*
D10*
X527050Y85598D02*
X527050Y95250D01*
D11*
X527050Y85598D02*
X514350Y85598D01*
D10*
X549910Y25400D02*
X425450Y25400D01*
X425450Y127000D02*
X549910Y127000D01*
D12*
X443865Y134620D02*
X443865Y139700D01*
X443867Y139811D01*
X443873Y139921D01*
X443882Y140032D01*
X443896Y140142D01*
X443913Y140251D01*
X443934Y140360D01*
X443959Y140468D01*
X443988Y140575D01*
X444020Y140681D01*
X444056Y140786D01*
X444096Y140889D01*
X444139Y140991D01*
X444186Y141092D01*
X444237Y141191D01*
X444290Y141288D01*
X444347Y141382D01*
X444408Y141475D01*
X444471Y141566D01*
X444538Y141655D01*
X444608Y141741D01*
X444681Y141824D01*
X444756Y141906D01*
X444834Y141984D01*
X444916Y142059D01*
X444999Y142132D01*
X445085Y142202D01*
X445174Y142269D01*
X445265Y142332D01*
X445358Y142393D01*
X445453Y142450D01*
X445549Y142503D01*
X445648Y142554D01*
X445749Y142601D01*
X445851Y142644D01*
X445954Y142684D01*
X446059Y142720D01*
X446165Y142752D01*
X446272Y142781D01*
X446380Y142806D01*
X446489Y142827D01*
X446598Y142844D01*
X446708Y142858D01*
X446819Y142867D01*
X446929Y142873D01*
X447040Y142875D01*
X447151Y142873D01*
X447261Y142867D01*
X447372Y142858D01*
X447482Y142844D01*
X447591Y142827D01*
X447700Y142806D01*
X447808Y142781D01*
X447915Y142752D01*
X448021Y142720D01*
X448126Y142684D01*
X448229Y142644D01*
X448331Y142601D01*
X448432Y142554D01*
X448531Y142503D01*
X448628Y142450D01*
X448722Y142393D01*
X448815Y142332D01*
X448906Y142269D01*
X448995Y142202D01*
X449081Y142132D01*
X449164Y142059D01*
X449246Y141984D01*
X449324Y141906D01*
X449399Y141824D01*
X449472Y141741D01*
X449542Y141655D01*
X449609Y141566D01*
X449672Y141475D01*
X449733Y141382D01*
X449790Y141288D01*
X449843Y141191D01*
X449894Y141092D01*
X449941Y140991D01*
X449984Y140889D01*
X450024Y140786D01*
X450060Y140681D01*
X450092Y140575D01*
X450121Y140468D01*
X450146Y140360D01*
X450167Y140251D01*
X450184Y140142D01*
X450198Y140032D01*
X450207Y139921D01*
X450213Y139811D01*
X450215Y139700D01*
X450215Y134620D01*
X450213Y134509D01*
X450207Y134399D01*
X450198Y134288D01*
X450184Y134178D01*
X450167Y134069D01*
X450146Y133960D01*
X450121Y133852D01*
X450092Y133745D01*
X450060Y133639D01*
X450024Y133534D01*
X449984Y133431D01*
X449941Y133329D01*
X449894Y133228D01*
X449843Y133129D01*
X449790Y133032D01*
X449733Y132938D01*
X449672Y132845D01*
X449609Y132754D01*
X449542Y132665D01*
X449472Y132579D01*
X449399Y132496D01*
X449324Y132414D01*
X449246Y132336D01*
X449164Y132261D01*
X449081Y132188D01*
X448995Y132118D01*
X448906Y132051D01*
X448815Y131988D01*
X448722Y131927D01*
X448627Y131870D01*
X448531Y131817D01*
X448432Y131766D01*
X448331Y131719D01*
X448229Y131676D01*
X448126Y131636D01*
X448021Y131600D01*
X447915Y131568D01*
X447808Y131539D01*
X447700Y131514D01*
X447591Y131493D01*
X447482Y131476D01*
X447372Y131462D01*
X447261Y131453D01*
X447151Y131447D01*
X447040Y131445D01*
X446929Y131447D01*
X446819Y131453D01*
X446708Y131462D01*
X446598Y131476D01*
X446489Y131493D01*
X446380Y131514D01*
X446272Y131539D01*
X446165Y131568D01*
X446059Y131600D01*
X445954Y131636D01*
X445851Y131676D01*
X445749Y131719D01*
X445648Y131766D01*
X445549Y131817D01*
X445453Y131870D01*
X445358Y131927D01*
X445265Y131988D01*
X445174Y132051D01*
X445085Y132118D01*
X444999Y132188D01*
X444916Y132261D01*
X444834Y132336D01*
X444756Y132414D01*
X444681Y132496D01*
X444608Y132579D01*
X444538Y132665D01*
X444471Y132754D01*
X444408Y132845D01*
X444347Y132938D01*
X444290Y133033D01*
X444237Y133129D01*
X444186Y133228D01*
X444139Y133329D01*
X444096Y133431D01*
X444056Y133534D01*
X444020Y133639D01*
X443988Y133745D01*
X443959Y133852D01*
X443934Y133960D01*
X443913Y134069D01*
X443896Y134178D01*
X443882Y134288D01*
X443873Y134399D01*
X443867Y134509D01*
X443865Y134620D01*
X448945Y133985D02*
X451485Y131445D01*
X454926Y140335D02*
X458101Y142875D01*
X458101Y131445D01*
X454926Y131445D02*
X461276Y131445D01*
D10*
X365760Y212090D02*
X365660Y212088D01*
X365561Y212082D01*
X365461Y212072D01*
X365363Y212059D01*
X365264Y212041D01*
X365167Y212020D01*
X365071Y211995D01*
X364975Y211966D01*
X364881Y211933D01*
X364788Y211897D01*
X364697Y211857D01*
X364607Y211813D01*
X364519Y211766D01*
X364433Y211716D01*
X364349Y211662D01*
X364267Y211605D01*
X364188Y211545D01*
X364110Y211481D01*
X364036Y211415D01*
X363964Y211346D01*
X363895Y211274D01*
X363829Y211200D01*
X363765Y211122D01*
X363705Y211043D01*
X363648Y210961D01*
X363594Y210877D01*
X363544Y210791D01*
X363497Y210703D01*
X363453Y210613D01*
X363413Y210522D01*
X363377Y210429D01*
X363344Y210335D01*
X363315Y210239D01*
X363290Y210143D01*
X363269Y210046D01*
X363251Y209947D01*
X363238Y209849D01*
X363228Y209749D01*
X363222Y209650D01*
X363220Y209550D01*
X363220Y196850D02*
X363222Y196750D01*
X363228Y196651D01*
X363238Y196551D01*
X363251Y196453D01*
X363269Y196354D01*
X363290Y196257D01*
X363315Y196161D01*
X363344Y196065D01*
X363377Y195971D01*
X363413Y195878D01*
X363453Y195787D01*
X363497Y195697D01*
X363544Y195609D01*
X363594Y195523D01*
X363648Y195439D01*
X363705Y195357D01*
X363765Y195278D01*
X363829Y195200D01*
X363895Y195126D01*
X363964Y195054D01*
X364036Y194985D01*
X364110Y194919D01*
X364188Y194855D01*
X364267Y194795D01*
X364349Y194738D01*
X364433Y194684D01*
X364519Y194634D01*
X364607Y194587D01*
X364697Y194543D01*
X364788Y194503D01*
X364881Y194467D01*
X364975Y194434D01*
X365071Y194405D01*
X365167Y194380D01*
X365264Y194359D01*
X365363Y194341D01*
X365461Y194328D01*
X365561Y194318D01*
X365660Y194312D01*
X365760Y194310D01*
X396240Y194310D02*
X396340Y194312D01*
X396439Y194318D01*
X396539Y194328D01*
X396637Y194341D01*
X396736Y194359D01*
X396833Y194380D01*
X396929Y194405D01*
X397025Y194434D01*
X397119Y194467D01*
X397212Y194503D01*
X397303Y194543D01*
X397393Y194587D01*
X397481Y194634D01*
X397567Y194684D01*
X397651Y194738D01*
X397733Y194795D01*
X397812Y194855D01*
X397890Y194919D01*
X397964Y194985D01*
X398036Y195054D01*
X398105Y195126D01*
X398171Y195200D01*
X398235Y195278D01*
X398295Y195357D01*
X398352Y195439D01*
X398406Y195523D01*
X398456Y195609D01*
X398503Y195697D01*
X398547Y195787D01*
X398587Y195878D01*
X398623Y195971D01*
X398656Y196065D01*
X398685Y196161D01*
X398710Y196257D01*
X398731Y196354D01*
X398749Y196453D01*
X398762Y196551D01*
X398772Y196651D01*
X398778Y196750D01*
X398780Y196850D01*
X398780Y209550D02*
X398778Y209650D01*
X398772Y209749D01*
X398762Y209849D01*
X398749Y209947D01*
X398731Y210046D01*
X398710Y210143D01*
X398685Y210239D01*
X398656Y210335D01*
X398623Y210429D01*
X398587Y210522D01*
X398547Y210613D01*
X398503Y210703D01*
X398456Y210791D01*
X398406Y210877D01*
X398352Y210961D01*
X398295Y211043D01*
X398235Y211122D01*
X398171Y211200D01*
X398105Y211274D01*
X398036Y211346D01*
X397964Y211415D01*
X397890Y211481D01*
X397812Y211545D01*
X397733Y211605D01*
X397651Y211662D01*
X397567Y211716D01*
X397481Y211766D01*
X397393Y211813D01*
X397303Y211857D01*
X397212Y211897D01*
X397119Y211933D01*
X397025Y211966D01*
X396929Y211995D01*
X396833Y212020D01*
X396736Y212041D01*
X396637Y212059D01*
X396539Y212072D01*
X396439Y212082D01*
X396340Y212088D01*
X396240Y212090D01*
X368300Y212090D02*
X365760Y212090D01*
X368300Y212090D02*
X369570Y210820D01*
X368300Y194310D02*
X365760Y194310D01*
X368300Y194310D02*
X369570Y195580D01*
X392430Y210820D02*
X393700Y212090D01*
X392430Y210820D02*
X369570Y210820D01*
X392430Y195580D02*
X393700Y194310D01*
X392430Y195580D02*
X369570Y195580D01*
X393700Y212090D02*
X396240Y212090D01*
X396240Y194310D02*
X393700Y194310D01*
D14*
X361442Y215392D02*
X361442Y224282D01*
X363911Y224282D01*
X364009Y224280D01*
X364107Y224274D01*
X364205Y224264D01*
X364302Y224251D01*
X364399Y224233D01*
X364495Y224212D01*
X364589Y224187D01*
X364683Y224158D01*
X364776Y224126D01*
X364867Y224089D01*
X364957Y224050D01*
X365045Y224006D01*
X365131Y223959D01*
X365216Y223909D01*
X365298Y223856D01*
X365378Y223799D01*
X365456Y223739D01*
X365531Y223676D01*
X365604Y223610D01*
X365674Y223541D01*
X365741Y223470D01*
X365806Y223396D01*
X365867Y223319D01*
X365926Y223240D01*
X365981Y223159D01*
X366033Y223076D01*
X366081Y222990D01*
X366126Y222903D01*
X366168Y222814D01*
X366206Y222724D01*
X366240Y222632D01*
X366271Y222539D01*
X366298Y222444D01*
X366321Y222349D01*
X366341Y222252D01*
X366356Y222156D01*
X366368Y222058D01*
X366376Y221960D01*
X366380Y221862D01*
X366380Y221764D01*
X366376Y221666D01*
X366368Y221568D01*
X366356Y221470D01*
X366341Y221374D01*
X366321Y221277D01*
X366298Y221182D01*
X366271Y221087D01*
X366240Y220994D01*
X366206Y220902D01*
X366168Y220812D01*
X366126Y220723D01*
X366081Y220636D01*
X366033Y220550D01*
X365981Y220467D01*
X365926Y220386D01*
X365867Y220307D01*
X365806Y220230D01*
X365741Y220156D01*
X365674Y220085D01*
X365604Y220016D01*
X365531Y219950D01*
X365456Y219887D01*
X365378Y219827D01*
X365298Y219770D01*
X365216Y219717D01*
X365131Y219667D01*
X365045Y219620D01*
X364957Y219576D01*
X364867Y219537D01*
X364776Y219500D01*
X364683Y219468D01*
X364589Y219439D01*
X364495Y219414D01*
X364399Y219393D01*
X364302Y219375D01*
X364205Y219362D01*
X364107Y219352D01*
X364009Y219346D01*
X363911Y219344D01*
X363911Y219343D02*
X361442Y219343D01*
X364405Y219343D02*
X366381Y215392D01*
X370292Y222306D02*
X372761Y224282D01*
X372761Y215392D01*
X370292Y215392D02*
X375231Y215392D01*
D10*
X363220Y247650D02*
X363222Y247750D01*
X363228Y247849D01*
X363238Y247949D01*
X363251Y248047D01*
X363269Y248146D01*
X363290Y248243D01*
X363315Y248339D01*
X363344Y248435D01*
X363377Y248529D01*
X363413Y248622D01*
X363453Y248713D01*
X363497Y248803D01*
X363544Y248891D01*
X363594Y248977D01*
X363648Y249061D01*
X363705Y249143D01*
X363765Y249222D01*
X363829Y249300D01*
X363895Y249374D01*
X363964Y249446D01*
X364036Y249515D01*
X364110Y249581D01*
X364188Y249645D01*
X364267Y249705D01*
X364349Y249762D01*
X364433Y249816D01*
X364519Y249866D01*
X364607Y249913D01*
X364697Y249957D01*
X364788Y249997D01*
X364881Y250033D01*
X364975Y250066D01*
X365071Y250095D01*
X365167Y250120D01*
X365264Y250141D01*
X365363Y250159D01*
X365461Y250172D01*
X365561Y250182D01*
X365660Y250188D01*
X365760Y250190D01*
X363220Y234950D02*
X363222Y234850D01*
X363228Y234751D01*
X363238Y234651D01*
X363251Y234553D01*
X363269Y234454D01*
X363290Y234357D01*
X363315Y234261D01*
X363344Y234165D01*
X363377Y234071D01*
X363413Y233978D01*
X363453Y233887D01*
X363497Y233797D01*
X363544Y233709D01*
X363594Y233623D01*
X363648Y233539D01*
X363705Y233457D01*
X363765Y233378D01*
X363829Y233300D01*
X363895Y233226D01*
X363964Y233154D01*
X364036Y233085D01*
X364110Y233019D01*
X364188Y232955D01*
X364267Y232895D01*
X364349Y232838D01*
X364433Y232784D01*
X364519Y232734D01*
X364607Y232687D01*
X364697Y232643D01*
X364788Y232603D01*
X364881Y232567D01*
X364975Y232534D01*
X365071Y232505D01*
X365167Y232480D01*
X365264Y232459D01*
X365363Y232441D01*
X365461Y232428D01*
X365561Y232418D01*
X365660Y232412D01*
X365760Y232410D01*
X396240Y232410D02*
X396340Y232412D01*
X396439Y232418D01*
X396539Y232428D01*
X396637Y232441D01*
X396736Y232459D01*
X396833Y232480D01*
X396929Y232505D01*
X397025Y232534D01*
X397119Y232567D01*
X397212Y232603D01*
X397303Y232643D01*
X397393Y232687D01*
X397481Y232734D01*
X397567Y232784D01*
X397651Y232838D01*
X397733Y232895D01*
X397812Y232955D01*
X397890Y233019D01*
X397964Y233085D01*
X398036Y233154D01*
X398105Y233226D01*
X398171Y233300D01*
X398235Y233378D01*
X398295Y233457D01*
X398352Y233539D01*
X398406Y233623D01*
X398456Y233709D01*
X398503Y233797D01*
X398547Y233887D01*
X398587Y233978D01*
X398623Y234071D01*
X398656Y234165D01*
X398685Y234261D01*
X398710Y234357D01*
X398731Y234454D01*
X398749Y234553D01*
X398762Y234651D01*
X398772Y234751D01*
X398778Y234850D01*
X398780Y234950D01*
X398780Y247650D02*
X398778Y247750D01*
X398772Y247849D01*
X398762Y247949D01*
X398749Y248047D01*
X398731Y248146D01*
X398710Y248243D01*
X398685Y248339D01*
X398656Y248435D01*
X398623Y248529D01*
X398587Y248622D01*
X398547Y248713D01*
X398503Y248803D01*
X398456Y248891D01*
X398406Y248977D01*
X398352Y249061D01*
X398295Y249143D01*
X398235Y249222D01*
X398171Y249300D01*
X398105Y249374D01*
X398036Y249446D01*
X397964Y249515D01*
X397890Y249581D01*
X397812Y249645D01*
X397733Y249705D01*
X397651Y249762D01*
X397567Y249816D01*
X397481Y249866D01*
X397393Y249913D01*
X397303Y249957D01*
X397212Y249997D01*
X397119Y250033D01*
X397025Y250066D01*
X396929Y250095D01*
X396833Y250120D01*
X396736Y250141D01*
X396637Y250159D01*
X396539Y250172D01*
X396439Y250182D01*
X396340Y250188D01*
X396240Y250190D01*
X368300Y250190D02*
X365760Y250190D01*
X368300Y250190D02*
X369570Y248920D01*
X368300Y232410D02*
X365760Y232410D01*
X368300Y232410D02*
X369570Y233680D01*
X392430Y248920D02*
X393700Y250190D01*
X392430Y248920D02*
X369570Y248920D01*
X392430Y233680D02*
X393700Y232410D01*
X392430Y233680D02*
X369570Y233680D01*
X393700Y250190D02*
X396240Y250190D01*
X396240Y232410D02*
X393700Y232410D01*
D14*
X361442Y253492D02*
X361442Y262382D01*
X363911Y262382D01*
X364009Y262380D01*
X364107Y262374D01*
X364205Y262364D01*
X364302Y262351D01*
X364399Y262333D01*
X364495Y262312D01*
X364589Y262287D01*
X364683Y262258D01*
X364776Y262226D01*
X364867Y262189D01*
X364957Y262150D01*
X365045Y262106D01*
X365131Y262059D01*
X365216Y262009D01*
X365298Y261956D01*
X365378Y261899D01*
X365456Y261839D01*
X365531Y261776D01*
X365604Y261710D01*
X365674Y261641D01*
X365741Y261570D01*
X365806Y261496D01*
X365867Y261419D01*
X365926Y261340D01*
X365981Y261259D01*
X366033Y261176D01*
X366081Y261090D01*
X366126Y261003D01*
X366168Y260914D01*
X366206Y260824D01*
X366240Y260732D01*
X366271Y260639D01*
X366298Y260544D01*
X366321Y260449D01*
X366341Y260352D01*
X366356Y260256D01*
X366368Y260158D01*
X366376Y260060D01*
X366380Y259962D01*
X366380Y259864D01*
X366376Y259766D01*
X366368Y259668D01*
X366356Y259570D01*
X366341Y259474D01*
X366321Y259377D01*
X366298Y259282D01*
X366271Y259187D01*
X366240Y259094D01*
X366206Y259002D01*
X366168Y258912D01*
X366126Y258823D01*
X366081Y258736D01*
X366033Y258650D01*
X365981Y258567D01*
X365926Y258486D01*
X365867Y258407D01*
X365806Y258330D01*
X365741Y258256D01*
X365674Y258185D01*
X365604Y258116D01*
X365531Y258050D01*
X365456Y257987D01*
X365378Y257927D01*
X365298Y257870D01*
X365216Y257817D01*
X365131Y257767D01*
X365045Y257720D01*
X364957Y257676D01*
X364867Y257637D01*
X364776Y257600D01*
X364683Y257568D01*
X364589Y257539D01*
X364495Y257514D01*
X364399Y257493D01*
X364302Y257475D01*
X364205Y257462D01*
X364107Y257452D01*
X364009Y257446D01*
X363911Y257444D01*
X363911Y257443D02*
X361442Y257443D01*
X364405Y257443D02*
X366381Y253492D01*
X375231Y260160D02*
X375229Y260252D01*
X375223Y260344D01*
X375214Y260435D01*
X375201Y260526D01*
X375184Y260616D01*
X375163Y260706D01*
X375139Y260794D01*
X375111Y260882D01*
X375079Y260968D01*
X375044Y261053D01*
X375005Y261136D01*
X374963Y261218D01*
X374918Y261298D01*
X374869Y261376D01*
X374817Y261452D01*
X374762Y261525D01*
X374704Y261597D01*
X374644Y261666D01*
X374580Y261732D01*
X374514Y261796D01*
X374445Y261856D01*
X374373Y261914D01*
X374300Y261969D01*
X374224Y262021D01*
X374146Y262070D01*
X374066Y262115D01*
X373984Y262157D01*
X373901Y262196D01*
X373816Y262231D01*
X373730Y262263D01*
X373642Y262291D01*
X373554Y262315D01*
X373464Y262336D01*
X373374Y262353D01*
X373283Y262366D01*
X373192Y262375D01*
X373100Y262381D01*
X373008Y262383D01*
X373008Y262382D02*
X372902Y262380D01*
X372797Y262374D01*
X372692Y262364D01*
X372587Y262351D01*
X372483Y262333D01*
X372380Y262312D01*
X372277Y262287D01*
X372175Y262258D01*
X372075Y262225D01*
X371976Y262189D01*
X371878Y262149D01*
X371782Y262105D01*
X371687Y262058D01*
X371595Y262008D01*
X371504Y261954D01*
X371415Y261896D01*
X371329Y261836D01*
X371245Y261772D01*
X371163Y261706D01*
X371083Y261636D01*
X371007Y261563D01*
X370933Y261488D01*
X370862Y261410D01*
X370794Y261329D01*
X370728Y261246D01*
X370666Y261160D01*
X370608Y261073D01*
X370552Y260983D01*
X370500Y260891D01*
X370451Y260797D01*
X370406Y260702D01*
X370364Y260605D01*
X370326Y260506D01*
X370292Y260407D01*
X374490Y258431D02*
X374559Y258500D01*
X374625Y258570D01*
X374688Y258644D01*
X374747Y258720D01*
X374804Y258798D01*
X374858Y258878D01*
X374908Y258961D01*
X374955Y259045D01*
X374998Y259132D01*
X375038Y259220D01*
X375074Y259309D01*
X375107Y259400D01*
X375136Y259492D01*
X375161Y259586D01*
X375182Y259680D01*
X375200Y259775D01*
X375213Y259871D01*
X375223Y259967D01*
X375229Y260063D01*
X375231Y260160D01*
X374490Y258431D02*
X370292Y253492D01*
X375231Y253492D01*
D15*
X411700Y292100D02*
X411733Y294775D01*
X411831Y297448D01*
X411995Y300119D01*
X412225Y302784D01*
X412520Y305443D01*
X412880Y308094D01*
X413305Y310735D01*
X413794Y313365D01*
X414348Y315982D01*
X414967Y318585D01*
X415648Y321172D01*
X416394Y323741D01*
X417201Y326291D01*
X418072Y328821D01*
X419004Y331329D01*
X419997Y333812D01*
X421051Y336271D01*
X422165Y338704D01*
X423339Y341108D01*
X424571Y343482D01*
X425861Y345826D01*
X427208Y348137D01*
X428611Y350415D01*
X430070Y352657D01*
X431583Y354863D01*
X433150Y357031D01*
X434770Y359160D01*
X436442Y361249D01*
X438164Y363296D01*
X439936Y365300D01*
X441757Y367260D01*
X443625Y369175D01*
X445540Y371043D01*
X447500Y372864D01*
X449504Y374636D01*
X451551Y376358D01*
X453640Y378030D01*
X455769Y379650D01*
X457937Y381217D01*
X460143Y382730D01*
X462385Y384189D01*
X464663Y385592D01*
X466974Y386939D01*
X469318Y388229D01*
X471692Y389461D01*
X474096Y390635D01*
X476529Y391749D01*
X478988Y392803D01*
X481471Y393796D01*
X483979Y394728D01*
X486509Y395599D01*
X489059Y396406D01*
X491628Y397152D01*
X494215Y397833D01*
X496818Y398452D01*
X499435Y399006D01*
X502065Y399495D01*
X504706Y399920D01*
X507357Y400280D01*
X510016Y400575D01*
X512681Y400805D01*
X515352Y400969D01*
X518025Y401067D01*
X520700Y401100D01*
X523375Y401067D01*
X526048Y400969D01*
X528719Y400805D01*
X531384Y400575D01*
X534043Y400280D01*
X536694Y399920D01*
X539335Y399495D01*
X541965Y399006D01*
X544582Y398452D01*
X547185Y397833D01*
X549772Y397152D01*
X552341Y396406D01*
X554891Y395599D01*
X557421Y394728D01*
X559929Y393796D01*
X562412Y392803D01*
X564871Y391749D01*
X567304Y390635D01*
X569708Y389461D01*
X572082Y388229D01*
X574426Y386939D01*
X576737Y385592D01*
X579015Y384189D01*
X581257Y382730D01*
X583463Y381217D01*
X585631Y379650D01*
X587760Y378030D01*
X589849Y376358D01*
X591896Y374636D01*
X593900Y372864D01*
X595860Y371043D01*
X597775Y369175D01*
X599643Y367260D01*
X601464Y365300D01*
X603236Y363296D01*
X604958Y361249D01*
X606630Y359160D01*
X608250Y357031D01*
X609817Y354863D01*
X611330Y352657D01*
X612789Y350415D01*
X614192Y348137D01*
X615539Y345826D01*
X616829Y343482D01*
X618061Y341108D01*
X619235Y338704D01*
X620349Y336271D01*
X621403Y333812D01*
X622396Y331329D01*
X623328Y328821D01*
X624199Y326291D01*
X625006Y323741D01*
X625752Y321172D01*
X626433Y318585D01*
X627052Y315982D01*
X627606Y313365D01*
X628095Y310735D01*
X628520Y308094D01*
X628880Y305443D01*
X629175Y302784D01*
X629405Y300119D01*
X629569Y297448D01*
X629667Y294775D01*
X629700Y292100D01*
X629667Y289425D01*
X629569Y286752D01*
X629405Y284081D01*
X629175Y281416D01*
X628880Y278757D01*
X628520Y276106D01*
X628095Y273465D01*
X627606Y270835D01*
X627052Y268218D01*
X626433Y265615D01*
X625752Y263028D01*
X625006Y260459D01*
X624199Y257909D01*
X623328Y255379D01*
X622396Y252871D01*
X621403Y250388D01*
X620349Y247929D01*
X619235Y245496D01*
X618061Y243092D01*
X616829Y240718D01*
X615539Y238374D01*
X614192Y236063D01*
X612789Y233785D01*
X611330Y231543D01*
X609817Y229337D01*
X608250Y227169D01*
X606630Y225040D01*
X604958Y222951D01*
X603236Y220904D01*
X601464Y218900D01*
X599643Y216940D01*
X597775Y215025D01*
X595860Y213157D01*
X593900Y211336D01*
X591896Y209564D01*
X589849Y207842D01*
X587760Y206170D01*
X585631Y204550D01*
X583463Y202983D01*
X581257Y201470D01*
X579015Y200011D01*
X576737Y198608D01*
X574426Y197261D01*
X572082Y195971D01*
X569708Y194739D01*
X567304Y193565D01*
X564871Y192451D01*
X562412Y191397D01*
X559929Y190404D01*
X557421Y189472D01*
X554891Y188601D01*
X552341Y187794D01*
X549772Y187048D01*
X547185Y186367D01*
X544582Y185748D01*
X541965Y185194D01*
X539335Y184705D01*
X536694Y184280D01*
X534043Y183920D01*
X531384Y183625D01*
X528719Y183395D01*
X526048Y183231D01*
X523375Y183133D01*
X520700Y183100D01*
X518025Y183133D01*
X515352Y183231D01*
X512681Y183395D01*
X510016Y183625D01*
X507357Y183920D01*
X504706Y184280D01*
X502065Y184705D01*
X499435Y185194D01*
X496818Y185748D01*
X494215Y186367D01*
X491628Y187048D01*
X489059Y187794D01*
X486509Y188601D01*
X483979Y189472D01*
X481471Y190404D01*
X478988Y191397D01*
X476529Y192451D01*
X474096Y193565D01*
X471692Y194739D01*
X469318Y195971D01*
X466974Y197261D01*
X464663Y198608D01*
X462385Y200011D01*
X460143Y201470D01*
X457937Y202983D01*
X455769Y204550D01*
X453640Y206170D01*
X451551Y207842D01*
X449504Y209564D01*
X447500Y211336D01*
X445540Y213157D01*
X443625Y215025D01*
X441757Y216940D01*
X439936Y218900D01*
X438164Y220904D01*
X436442Y222951D01*
X434770Y225040D01*
X433150Y227169D01*
X431583Y229337D01*
X430070Y231543D01*
X428611Y233785D01*
X427208Y236063D01*
X425861Y238374D01*
X424571Y240718D01*
X423339Y243092D01*
X422165Y245496D01*
X421051Y247929D01*
X419997Y250388D01*
X419004Y252871D01*
X418072Y255379D01*
X417201Y257909D01*
X416394Y260459D01*
X415648Y263028D01*
X414967Y265615D01*
X414348Y268218D01*
X413794Y270835D01*
X413305Y273465D01*
X412880Y276106D01*
X412520Y278757D01*
X412225Y281416D01*
X411995Y284081D01*
X411831Y286752D01*
X411733Y289425D01*
X411700Y292100D01*
D16*
X520700Y189475D03*
D14*
X564642Y297505D02*
X564640Y297604D01*
X564634Y297704D01*
X564625Y297803D01*
X564612Y297901D01*
X564595Y297999D01*
X564574Y298097D01*
X564549Y298193D01*
X564521Y298288D01*
X564489Y298382D01*
X564454Y298475D01*
X564415Y298567D01*
X564372Y298657D01*
X564327Y298745D01*
X564277Y298832D01*
X564225Y298916D01*
X564169Y298999D01*
X564111Y299079D01*
X564049Y299157D01*
X563984Y299232D01*
X563916Y299305D01*
X563846Y299375D01*
X563773Y299443D01*
X563698Y299508D01*
X563620Y299570D01*
X563540Y299628D01*
X563457Y299684D01*
X563373Y299736D01*
X563286Y299786D01*
X563198Y299831D01*
X563108Y299874D01*
X563016Y299913D01*
X562923Y299948D01*
X562829Y299980D01*
X562734Y300008D01*
X562638Y300033D01*
X562540Y300054D01*
X562442Y300071D01*
X562344Y300084D01*
X562245Y300093D01*
X562145Y300099D01*
X562046Y300101D01*
X564642Y297505D02*
X564640Y297361D01*
X564634Y297216D01*
X564625Y297072D01*
X564612Y296929D01*
X564595Y296785D01*
X564574Y296642D01*
X564549Y296500D01*
X564521Y296359D01*
X564489Y296218D01*
X564453Y296078D01*
X564414Y295939D01*
X564371Y295801D01*
X564324Y295665D01*
X564274Y295529D01*
X564220Y295395D01*
X564163Y295263D01*
X564102Y295132D01*
X564038Y295003D01*
X563970Y294875D01*
X563900Y294749D01*
X563825Y294625D01*
X563748Y294504D01*
X563667Y294384D01*
X563584Y294266D01*
X563497Y294151D01*
X563407Y294038D01*
X563314Y293927D01*
X563219Y293819D01*
X563120Y293713D01*
X563019Y293610D01*
X555554Y293935D02*
X555455Y293937D01*
X555355Y293943D01*
X555256Y293952D01*
X555158Y293965D01*
X555060Y293982D01*
X554962Y294003D01*
X554866Y294028D01*
X554771Y294056D01*
X554677Y294088D01*
X554584Y294123D01*
X554492Y294162D01*
X554402Y294205D01*
X554314Y294250D01*
X554227Y294300D01*
X554143Y294352D01*
X554060Y294408D01*
X553980Y294466D01*
X553902Y294528D01*
X553827Y294593D01*
X553754Y294661D01*
X553684Y294731D01*
X553616Y294804D01*
X553551Y294879D01*
X553489Y294957D01*
X553431Y295037D01*
X553375Y295120D01*
X553323Y295204D01*
X553273Y295291D01*
X553228Y295379D01*
X553185Y295469D01*
X553146Y295561D01*
X553111Y295654D01*
X553079Y295748D01*
X553051Y295843D01*
X553026Y295939D01*
X553005Y296037D01*
X552988Y296135D01*
X552975Y296233D01*
X552966Y296332D01*
X552960Y296432D01*
X552958Y296531D01*
X552960Y296667D01*
X552966Y296803D01*
X552975Y296939D01*
X552988Y297075D01*
X553006Y297210D01*
X553026Y297344D01*
X553051Y297478D01*
X553079Y297612D01*
X553112Y297744D01*
X553147Y297875D01*
X553187Y298006D01*
X553230Y298135D01*
X553276Y298263D01*
X553327Y298389D01*
X553380Y298515D01*
X553438Y298638D01*
X553498Y298760D01*
X553562Y298880D01*
X553630Y298999D01*
X553700Y299115D01*
X553774Y299229D01*
X553851Y299342D01*
X553932Y299452D01*
X557826Y295232D02*
X557773Y295146D01*
X557716Y295062D01*
X557657Y294980D01*
X557594Y294900D01*
X557528Y294823D01*
X557460Y294748D01*
X557388Y294676D01*
X557314Y294607D01*
X557237Y294541D01*
X557158Y294478D01*
X557076Y294418D01*
X556992Y294361D01*
X556906Y294307D01*
X556818Y294257D01*
X556728Y294210D01*
X556637Y294166D01*
X556543Y294127D01*
X556449Y294090D01*
X556353Y294058D01*
X556255Y294029D01*
X556157Y294004D01*
X556058Y293983D01*
X555958Y293965D01*
X555858Y293952D01*
X555757Y293942D01*
X555655Y293936D01*
X555554Y293934D01*
X559774Y298803D02*
X559827Y298889D01*
X559884Y298973D01*
X559943Y299055D01*
X560006Y299135D01*
X560072Y299212D01*
X560140Y299287D01*
X560212Y299359D01*
X560286Y299428D01*
X560363Y299494D01*
X560442Y299557D01*
X560524Y299617D01*
X560608Y299674D01*
X560694Y299728D01*
X560782Y299778D01*
X560872Y299825D01*
X560963Y299869D01*
X561057Y299908D01*
X561151Y299945D01*
X561247Y299977D01*
X561345Y300006D01*
X561443Y300031D01*
X561542Y300052D01*
X561642Y300070D01*
X561742Y300083D01*
X561843Y300093D01*
X561945Y300099D01*
X562046Y300101D01*
X559774Y298803D02*
X557826Y295233D01*
X558151Y309584D02*
X558151Y311531D01*
X564642Y311531D01*
X564642Y307636D01*
X564640Y307537D01*
X564634Y307437D01*
X564625Y307338D01*
X564612Y307240D01*
X564595Y307142D01*
X564574Y307044D01*
X564549Y306948D01*
X564521Y306853D01*
X564489Y306759D01*
X564454Y306666D01*
X564415Y306574D01*
X564372Y306484D01*
X564327Y306396D01*
X564277Y306309D01*
X564225Y306225D01*
X564169Y306142D01*
X564111Y306062D01*
X564049Y305984D01*
X563984Y305909D01*
X563916Y305836D01*
X563846Y305766D01*
X563773Y305698D01*
X563698Y305633D01*
X563620Y305571D01*
X563540Y305513D01*
X563457Y305457D01*
X563373Y305405D01*
X563286Y305355D01*
X563198Y305310D01*
X563108Y305267D01*
X563016Y305228D01*
X562923Y305193D01*
X562829Y305161D01*
X562734Y305133D01*
X562638Y305108D01*
X562540Y305087D01*
X562442Y305070D01*
X562344Y305057D01*
X562245Y305048D01*
X562145Y305042D01*
X562046Y305040D01*
X555554Y305040D01*
X555554Y305039D02*
X555455Y305041D01*
X555355Y305047D01*
X555256Y305056D01*
X555158Y305069D01*
X555060Y305087D01*
X554962Y305107D01*
X554866Y305132D01*
X554770Y305160D01*
X554676Y305192D01*
X554583Y305227D01*
X554492Y305266D01*
X554402Y305309D01*
X554313Y305354D01*
X554227Y305404D01*
X554142Y305456D01*
X554060Y305512D01*
X553980Y305571D01*
X553902Y305632D01*
X553826Y305697D01*
X553753Y305765D01*
X553683Y305835D01*
X553615Y305908D01*
X553550Y305984D01*
X553489Y306062D01*
X553430Y306142D01*
X553374Y306224D01*
X553322Y306309D01*
X553273Y306395D01*
X553227Y306484D01*
X553184Y306574D01*
X553145Y306665D01*
X553110Y306758D01*
X553078Y306852D01*
X553050Y306948D01*
X553025Y307044D01*
X553005Y307142D01*
X552987Y307240D01*
X552974Y307338D01*
X552965Y307437D01*
X552959Y307536D01*
X552957Y307636D01*
X552958Y307636D02*
X552958Y311531D01*
X555554Y316851D02*
X552958Y320096D01*
X564642Y320096D01*
X564642Y316851D02*
X564642Y323342D01*
D10*
X38100Y158750D02*
X38100Y146050D01*
X38100Y158750D02*
X44450Y165100D01*
X57150Y165100D02*
X63500Y158750D01*
X44450Y165100D02*
X38100Y171450D01*
X38100Y184150D01*
X44450Y190500D01*
X57150Y190500D02*
X63500Y184150D01*
X63500Y171450D01*
X57150Y165100D01*
X57150Y139700D02*
X44450Y139700D01*
X38100Y146050D01*
X57150Y139700D02*
X63500Y146050D01*
X63500Y158750D01*
X44450Y190500D02*
X38100Y196850D01*
X38100Y209550D01*
X44450Y215900D01*
X57150Y215900D02*
X63500Y209550D01*
X63500Y196850D01*
X57150Y190500D01*
X38100Y222250D02*
X38100Y234950D01*
X44450Y241300D01*
X57150Y241300D02*
X63500Y234950D01*
X44450Y241300D02*
X38100Y247650D01*
X38100Y260350D01*
X44450Y266700D01*
X57150Y266700D01*
X63500Y260350D01*
X63500Y247650D01*
X57150Y241300D01*
X38100Y222250D02*
X44450Y215900D01*
X57150Y215900D02*
X63500Y222250D01*
X63500Y234950D01*
D12*
X67945Y149860D02*
X70485Y146685D01*
X67945Y149860D02*
X79375Y149860D01*
X79375Y146685D02*
X79375Y153035D01*
X33655Y248285D02*
X33655Y252095D01*
X33653Y252195D01*
X33647Y252294D01*
X33637Y252394D01*
X33624Y252492D01*
X33606Y252591D01*
X33585Y252688D01*
X33560Y252784D01*
X33531Y252880D01*
X33498Y252974D01*
X33462Y253067D01*
X33422Y253158D01*
X33378Y253248D01*
X33331Y253336D01*
X33281Y253422D01*
X33227Y253506D01*
X33170Y253588D01*
X33110Y253667D01*
X33046Y253745D01*
X32980Y253819D01*
X32911Y253891D01*
X32839Y253960D01*
X32765Y254026D01*
X32687Y254090D01*
X32608Y254150D01*
X32526Y254207D01*
X32442Y254261D01*
X32356Y254311D01*
X32268Y254358D01*
X32178Y254402D01*
X32087Y254442D01*
X31994Y254478D01*
X31900Y254511D01*
X31804Y254540D01*
X31708Y254565D01*
X31611Y254586D01*
X31512Y254604D01*
X31414Y254617D01*
X31314Y254627D01*
X31215Y254633D01*
X31115Y254635D01*
X29845Y254635D01*
X29745Y254633D01*
X29646Y254627D01*
X29546Y254617D01*
X29448Y254604D01*
X29349Y254586D01*
X29252Y254565D01*
X29156Y254540D01*
X29060Y254511D01*
X28966Y254478D01*
X28873Y254442D01*
X28782Y254402D01*
X28692Y254358D01*
X28604Y254311D01*
X28518Y254261D01*
X28434Y254207D01*
X28352Y254150D01*
X28273Y254090D01*
X28195Y254026D01*
X28121Y253960D01*
X28049Y253891D01*
X27980Y253819D01*
X27914Y253745D01*
X27850Y253667D01*
X27790Y253588D01*
X27733Y253506D01*
X27679Y253422D01*
X27629Y253336D01*
X27582Y253248D01*
X27538Y253158D01*
X27498Y253067D01*
X27462Y252974D01*
X27429Y252880D01*
X27400Y252784D01*
X27375Y252688D01*
X27354Y252591D01*
X27336Y252492D01*
X27323Y252394D01*
X27313Y252294D01*
X27307Y252195D01*
X27305Y252095D01*
X27305Y248285D01*
X22225Y248285D01*
X22225Y254635D01*
X31115Y146685D02*
X31215Y146683D01*
X31314Y146677D01*
X31414Y146667D01*
X31512Y146654D01*
X31611Y146636D01*
X31708Y146615D01*
X31804Y146590D01*
X31900Y146561D01*
X31994Y146528D01*
X32087Y146492D01*
X32178Y146452D01*
X32268Y146408D01*
X32356Y146361D01*
X32442Y146311D01*
X32526Y146257D01*
X32608Y146200D01*
X32687Y146140D01*
X32765Y146076D01*
X32839Y146010D01*
X32911Y145941D01*
X32980Y145869D01*
X33046Y145795D01*
X33110Y145717D01*
X33170Y145638D01*
X33227Y145556D01*
X33281Y145472D01*
X33331Y145386D01*
X33378Y145298D01*
X33422Y145208D01*
X33462Y145117D01*
X33498Y145024D01*
X33531Y144930D01*
X33560Y144834D01*
X33585Y144738D01*
X33606Y144641D01*
X33624Y144542D01*
X33637Y144444D01*
X33647Y144344D01*
X33653Y144245D01*
X33655Y144145D01*
X33653Y144004D01*
X33648Y143863D01*
X33638Y143722D01*
X33625Y143581D01*
X33609Y143441D01*
X33588Y143301D01*
X33564Y143162D01*
X33536Y143023D01*
X33505Y142886D01*
X33470Y142749D01*
X33432Y142613D01*
X33390Y142478D01*
X33344Y142345D01*
X33295Y142212D01*
X33242Y142081D01*
X33186Y141952D01*
X33127Y141823D01*
X33064Y141697D01*
X32998Y141572D01*
X32929Y141449D01*
X32856Y141328D01*
X32780Y141209D01*
X32701Y141091D01*
X32620Y140976D01*
X32535Y140864D01*
X32447Y140753D01*
X32356Y140645D01*
X32263Y140539D01*
X32166Y140436D01*
X32067Y140335D01*
X24765Y140653D02*
X24665Y140655D01*
X24566Y140661D01*
X24466Y140671D01*
X24368Y140684D01*
X24269Y140702D01*
X24172Y140723D01*
X24076Y140748D01*
X23980Y140777D01*
X23886Y140810D01*
X23793Y140846D01*
X23702Y140886D01*
X23612Y140930D01*
X23524Y140977D01*
X23438Y141027D01*
X23354Y141081D01*
X23272Y141138D01*
X23193Y141198D01*
X23115Y141262D01*
X23041Y141328D01*
X22969Y141397D01*
X22900Y141469D01*
X22834Y141543D01*
X22770Y141621D01*
X22710Y141700D01*
X22653Y141782D01*
X22599Y141866D01*
X22549Y141952D01*
X22502Y142040D01*
X22458Y142130D01*
X22418Y142221D01*
X22382Y142314D01*
X22349Y142408D01*
X22320Y142504D01*
X22295Y142600D01*
X22274Y142697D01*
X22256Y142796D01*
X22243Y142894D01*
X22233Y142994D01*
X22227Y143093D01*
X22225Y143193D01*
X22227Y143326D01*
X22232Y143459D01*
X22242Y143592D01*
X22255Y143725D01*
X22272Y143857D01*
X22292Y143989D01*
X22316Y144120D01*
X22344Y144250D01*
X22375Y144380D01*
X22410Y144508D01*
X22449Y144636D01*
X22491Y144762D01*
X22537Y144887D01*
X22586Y145011D01*
X22638Y145134D01*
X22694Y145255D01*
X22754Y145374D01*
X22816Y145492D01*
X22882Y145607D01*
X22951Y145721D01*
X23024Y145833D01*
X23099Y145943D01*
X23178Y146051D01*
X26988Y141922D02*
X26936Y141838D01*
X26881Y141755D01*
X26822Y141675D01*
X26761Y141597D01*
X26697Y141522D01*
X26629Y141449D01*
X26559Y141378D01*
X26487Y141311D01*
X26412Y141246D01*
X26334Y141184D01*
X26254Y141125D01*
X26172Y141069D01*
X26088Y141017D01*
X26002Y140968D01*
X25914Y140922D01*
X25824Y140879D01*
X25733Y140840D01*
X25640Y140805D01*
X25546Y140773D01*
X25451Y140745D01*
X25355Y140720D01*
X25258Y140700D01*
X25160Y140682D01*
X25062Y140669D01*
X24963Y140660D01*
X24864Y140654D01*
X24765Y140652D01*
X28892Y145415D02*
X28944Y145499D01*
X28999Y145582D01*
X29058Y145662D01*
X29119Y145740D01*
X29183Y145815D01*
X29251Y145888D01*
X29321Y145959D01*
X29393Y146026D01*
X29468Y146091D01*
X29546Y146153D01*
X29626Y146212D01*
X29708Y146268D01*
X29792Y146320D01*
X29878Y146369D01*
X29966Y146415D01*
X30056Y146458D01*
X30147Y146497D01*
X30240Y146532D01*
X30334Y146564D01*
X30429Y146592D01*
X30525Y146617D01*
X30622Y146637D01*
X30720Y146655D01*
X30818Y146668D01*
X30917Y146677D01*
X31016Y146683D01*
X31115Y146685D01*
X28893Y145415D02*
X26988Y141923D01*
X22225Y150749D02*
X33655Y154559D01*
X22225Y158369D01*
X22225Y166307D02*
X22227Y166411D01*
X22233Y166516D01*
X22242Y166620D01*
X22255Y166723D01*
X22273Y166826D01*
X22293Y166928D01*
X22318Y167030D01*
X22346Y167130D01*
X22378Y167230D01*
X22414Y167328D01*
X22453Y167425D01*
X22495Y167520D01*
X22541Y167614D01*
X22591Y167706D01*
X22643Y167796D01*
X22699Y167884D01*
X22759Y167970D01*
X22821Y168054D01*
X22886Y168135D01*
X22954Y168214D01*
X23026Y168291D01*
X23099Y168364D01*
X23176Y168436D01*
X23255Y168504D01*
X23336Y168569D01*
X23420Y168631D01*
X23506Y168691D01*
X23594Y168747D01*
X23684Y168799D01*
X23776Y168849D01*
X23870Y168895D01*
X23965Y168937D01*
X24062Y168976D01*
X24160Y169012D01*
X24260Y169044D01*
X24360Y169072D01*
X24462Y169097D01*
X24564Y169117D01*
X24667Y169135D01*
X24770Y169148D01*
X24874Y169157D01*
X24979Y169163D01*
X25083Y169165D01*
X22225Y166307D02*
X22227Y166189D01*
X22233Y166070D01*
X22242Y165952D01*
X22255Y165835D01*
X22273Y165718D01*
X22293Y165601D01*
X22318Y165485D01*
X22346Y165370D01*
X22379Y165257D01*
X22414Y165144D01*
X22454Y165032D01*
X22496Y164922D01*
X22543Y164813D01*
X22593Y164705D01*
X22646Y164600D01*
X22703Y164496D01*
X22763Y164394D01*
X22826Y164294D01*
X22893Y164196D01*
X22962Y164100D01*
X23035Y164007D01*
X23111Y163916D01*
X23189Y163827D01*
X23271Y163741D01*
X23355Y163658D01*
X23441Y163577D01*
X23531Y163500D01*
X23622Y163425D01*
X23716Y163353D01*
X23813Y163284D01*
X23911Y163219D01*
X24012Y163156D01*
X24115Y163097D01*
X24219Y163041D01*
X24325Y162989D01*
X24433Y162940D01*
X24542Y162895D01*
X24653Y162853D01*
X24765Y162815D01*
X27305Y168212D02*
X27230Y168288D01*
X27151Y168363D01*
X27070Y168434D01*
X26986Y168503D01*
X26900Y168568D01*
X26812Y168630D01*
X26722Y168690D01*
X26630Y168746D01*
X26535Y168799D01*
X26439Y168848D01*
X26341Y168894D01*
X26242Y168937D01*
X26141Y168976D01*
X26039Y169011D01*
X25936Y169043D01*
X25832Y169071D01*
X25727Y169096D01*
X25620Y169117D01*
X25514Y169134D01*
X25407Y169147D01*
X25299Y169156D01*
X25191Y169162D01*
X25083Y169164D01*
X27305Y168212D02*
X33655Y162814D01*
X33655Y169164D01*
M02*
