G04 EAGLE Gerber RS-274X export*
G75*
%MOMM*%
%FSLAX34Y34*%
%LPD*%
%INSoldermask Bottom*%
%IPPOS*%
%AMOC8*
5,1,8,0,0,1.08239X$1,22.5*%
G01*
%ADD10P,1.649562X8X22.500000*%
%ADD11C,1.524000*%
%ADD12C,1.524000*%
%ADD13C,1.879600*%
%ADD14C,1.727200*%


D10*
X368300Y152400D03*
X393700Y152400D03*
X304800Y88900D03*
X330200Y88900D03*
X304800Y38100D03*
X330200Y38100D03*
D11*
X50800Y31496D02*
X50800Y44704D01*
X76200Y44704D02*
X76200Y31496D01*
X203200Y31496D02*
X203200Y44704D01*
X228600Y44704D02*
X228600Y31496D01*
X101600Y31496D02*
X101600Y44704D01*
X127000Y44704D02*
X127000Y31496D01*
X177800Y31496D02*
X177800Y44704D01*
X152400Y44704D02*
X152400Y31496D01*
X228600Y107696D02*
X228600Y120904D01*
X203200Y120904D02*
X203200Y107696D01*
X177800Y107696D02*
X177800Y120904D01*
X152400Y120904D02*
X152400Y107696D01*
X127000Y107696D02*
X127000Y120904D01*
X101600Y120904D02*
X101600Y107696D01*
X76200Y107696D02*
X76200Y120904D01*
X50800Y120904D02*
X50800Y107696D01*
X88900Y285496D02*
X88900Y298704D01*
X114300Y298704D02*
X114300Y285496D01*
X241300Y285496D02*
X241300Y298704D01*
X266700Y298704D02*
X266700Y285496D01*
X139700Y285496D02*
X139700Y298704D01*
X165100Y298704D02*
X165100Y285496D01*
X215900Y285496D02*
X215900Y298704D01*
X190500Y298704D02*
X190500Y285496D01*
X266700Y361696D02*
X266700Y374904D01*
X241300Y374904D02*
X241300Y361696D01*
X215900Y361696D02*
X215900Y374904D01*
X190500Y374904D02*
X190500Y361696D01*
X165100Y361696D02*
X165100Y374904D01*
X139700Y374904D02*
X139700Y361696D01*
X114300Y361696D02*
X114300Y374904D01*
X88900Y374904D02*
X88900Y361696D01*
X127000Y171704D02*
X127000Y158496D01*
X152400Y158496D02*
X152400Y171704D01*
X279400Y171704D02*
X279400Y158496D01*
X304800Y158496D02*
X304800Y171704D01*
X177800Y171704D02*
X177800Y158496D01*
X203200Y158496D02*
X203200Y171704D01*
X254000Y171704D02*
X254000Y158496D01*
X228600Y158496D02*
X228600Y171704D01*
X304800Y234696D02*
X304800Y247904D01*
X279400Y247904D02*
X279400Y234696D01*
X254000Y234696D02*
X254000Y247904D01*
X228600Y247904D02*
X228600Y234696D01*
X203200Y234696D02*
X203200Y247904D01*
X177800Y247904D02*
X177800Y234696D01*
X152400Y234696D02*
X152400Y247904D01*
X127000Y247904D02*
X127000Y234696D01*
D12*
X393700Y279400D03*
X393700Y304800D03*
X317500Y304800D03*
X317500Y279400D03*
X393700Y330200D03*
X393700Y355600D03*
X317500Y330200D03*
X317500Y355600D03*
X406400Y100330D03*
X406400Y52070D03*
D10*
X355600Y203200D03*
X406400Y203200D03*
X355600Y241300D03*
X406400Y241300D03*
D13*
X520700Y342100D03*
X520700Y242100D03*
D14*
X58420Y152400D02*
X43180Y152400D01*
X43180Y177800D02*
X58420Y177800D01*
X58420Y203200D02*
X43180Y203200D01*
X43180Y228600D02*
X58420Y228600D01*
X58420Y254000D02*
X43180Y254000D01*
M02*
